<svg width="203" height="39" viewBox="0 0 203 39" fill="none" xmlns="http://www.w3.org/2000/svg">
<path d="M10.144 38.48C8.288 38.48 6.592 38.08 5.056 37.28C3.552 36.48 2.352 35.312 1.456 33.776C0.592 32.208 0.16 30.304 0.16 28.064C0.16 25.856 0.624 23.952 1.552 22.352C2.48 20.72 3.712 19.472 5.248 18.608C6.816 17.744 8.528 17.312 10.384 17.312C12.24 17.312 13.808 17.744 15.088 18.608C16.368 19.44 17.344 20.432 18.016 21.584L17.728 22.352L18.16 18.128H22.288V38H17.824V32.816L18.304 33.968C18.176 34.288 17.888 34.704 17.44 35.216C17.024 35.696 16.448 36.192 15.712 36.704C15.008 37.216 14.192 37.648 13.264 38C12.336 38.32 11.296 38.48 10.144 38.48ZM11.344 34.784C12.464 34.784 13.472 34.576 14.368 34.16C15.264 33.744 16 33.168 16.576 32.432C17.184 31.664 17.6 30.752 17.824 29.696V25.808C17.568 24.848 17.12 24.016 16.48 23.312C15.84 22.576 15.072 22.016 14.176 21.632C13.28 21.216 12.288 21.008 11.2 21.008C10.016 21.008 8.928 21.296 7.936 21.872C6.944 22.448 6.144 23.248 5.536 24.272C4.96 25.296 4.672 26.496 4.672 27.872C4.672 29.152 4.976 30.32 5.584 31.376C6.192 32.432 7.008 33.264 8.032 33.872C9.056 34.48 10.16 34.784 11.344 34.784ZM42.109 38.48C40.285 38.48 38.669 38.08 37.261 37.28C35.885 36.48 34.781 35.472 33.949 34.256L34.477 32.864V38H30.013V0.847998H34.429V22.688L34.285 21.008C35.085 19.92 36.221 19.04 37.693 18.368C39.197 17.664 40.861 17.312 42.685 17.312C44.477 17.312 46.109 17.744 47.581 18.608C49.053 19.472 50.221 20.688 51.085 22.256C51.981 23.792 52.429 25.632 52.429 27.776C52.429 30.016 51.949 31.936 50.989 33.536C50.061 35.136 48.813 36.368 47.245 37.232C45.677 38.064 43.965 38.48 42.109 38.48ZM41.197 34.688C42.477 34.688 43.629 34.384 44.653 33.776C45.677 33.168 46.477 32.352 47.053 31.328C47.629 30.272 47.917 29.072 47.917 27.728C47.917 26.448 47.613 25.296 47.005 24.272C46.429 23.216 45.629 22.384 44.605 21.776C43.613 21.168 42.477 20.864 41.197 20.864C40.109 20.864 39.101 21.072 38.173 21.488C37.245 21.904 36.461 22.48 35.821 23.216C35.181 23.92 34.733 24.752 34.477 25.712V29.696C34.733 30.656 35.165 31.52 35.773 32.288C36.381 33.024 37.149 33.616 38.077 34.064C39.005 34.48 40.045 34.688 41.197 34.688ZM56.7381 27.872C56.7381 25.888 57.2021 24.096 58.1301 22.496C59.0901 20.896 60.4021 19.632 62.0661 18.704C63.7301 17.776 65.6181 17.312 67.7301 17.312C69.9061 17.312 71.8101 17.776 73.4421 18.704C75.0741 19.632 76.3381 20.896 77.2341 22.496C78.1301 24.096 78.5781 25.888 78.5781 27.872C78.5781 29.856 78.1301 31.664 77.2341 33.296C76.3381 34.896 75.0581 36.16 73.3941 37.088C71.7621 38.016 69.8581 38.48 67.6821 38.48C65.5701 38.48 63.6821 38.048 62.0181 37.184C60.3861 36.288 59.0901 35.056 58.1301 33.488C57.2021 31.888 56.7381 30.016 56.7381 27.872ZM61.2021 27.92C61.2021 29.2 61.4901 30.368 62.0661 31.424C62.6421 32.448 63.4101 33.264 64.3701 33.872C65.3621 34.48 66.4501 34.784 67.6341 34.784C68.8821 34.784 69.9861 34.48 70.9461 33.872C71.9381 33.264 72.7061 32.448 73.2501 31.424C73.7941 30.368 74.0661 29.2 74.0661 27.92C74.0661 26.64 73.7941 25.488 73.2501 24.464C72.7061 23.408 71.9381 22.576 70.9461 21.968C69.9861 21.328 68.8821 21.008 67.6341 21.008C66.4181 21.008 65.3141 21.328 64.3221 21.968C63.3621 22.608 62.5941 23.456 62.0181 24.512C61.4741 25.536 61.2021 26.672 61.2021 27.92ZM90.9104 38.768C89.1184 38.768 87.6304 38.224 86.4464 37.136C85.2944 36.016 84.6864 34.576 84.6224 32.816V18.128H89.0864V31.232C89.1504 32.32 89.4544 33.2 89.9984 33.872C90.5744 34.544 91.4704 34.896 92.6864 34.928C93.8064 34.928 94.7984 34.608 95.6624 33.968C96.5584 33.296 97.2784 32.4 97.8224 31.28C98.3664 30.128 98.6384 28.832 98.6384 27.392V18.128H103.102V38H99.0224L98.6384 33.104L98.8784 33.968C98.4944 34.896 97.9024 35.728 97.1024 36.464C96.3344 37.168 95.4224 37.728 94.3664 38.144C93.3104 38.56 92.1584 38.768 90.9104 38.768ZM112.746 9.392H117.21V18.224H122.682V21.728H117.21V38H112.746V21.728H109.098V18.224H112.746V9.392ZM147.247 18.128L147.631 22.592L147.439 22.208C148.175 20.704 149.215 19.52 150.559 18.656C151.935 17.792 153.503 17.36 155.263 17.36C156.383 17.36 157.375 17.536 158.239 17.888C159.103 18.24 159.807 18.752 160.351 19.424C160.927 20.064 161.295 20.864 161.455 21.824L161.215 21.968C161.983 20.528 163.039 19.408 164.383 18.608C165.759 17.776 167.199 17.36 168.703 17.36C170.655 17.36 172.191 17.92 173.311 19.04C174.463 20.128 175.055 21.552 175.087 23.312V38H170.623V24.896C170.591 23.872 170.335 23.024 169.855 22.352C169.407 21.648 168.607 21.264 167.455 21.2C166.303 21.2 165.263 21.552 164.335 22.256C163.439 22.96 162.735 23.872 162.223 24.992C161.711 26.08 161.439 27.264 161.407 28.544V38H156.943V24.896C156.911 23.872 156.639 23.024 156.127 22.352C155.647 21.648 154.831 21.264 153.679 21.2C152.495 21.2 151.455 21.552 150.559 22.256C149.663 22.96 148.959 23.872 148.447 24.992C147.967 26.112 147.727 27.312 147.727 28.592V38H143.263V18.128H147.247ZM192.088 38.48C189.816 38.48 187.864 38.032 186.232 37.136C184.6 36.208 183.336 34.96 182.44 33.392C181.576 31.792 181.144 29.968 181.144 27.92C181.144 25.968 181.64 24.192 182.632 22.592C183.624 20.992 184.952 19.712 186.616 18.752C188.28 17.792 190.136 17.312 192.184 17.312C194.808 17.312 196.984 18.08 198.712 19.616C200.44 21.152 201.608 23.264 202.216 25.952L185.848 31.712L184.792 29.072L198.232 24.176L197.272 24.8C196.888 23.744 196.248 22.832 195.352 22.064C194.456 21.264 193.288 20.864 191.848 20.864C190.632 20.864 189.544 21.168 188.584 21.776C187.624 22.352 186.872 23.152 186.328 24.176C185.784 25.2 185.512 26.368 185.512 27.68C185.512 29.056 185.8 30.272 186.376 31.328C186.952 32.352 187.736 33.168 188.728 33.776C189.752 34.352 190.904 34.64 192.184 34.64C193.048 34.64 193.88 34.48 194.68 34.16C195.512 33.84 196.28 33.424 196.984 32.912L199.048 36.224C198.056 36.896 196.936 37.44 195.688 37.856C194.472 38.272 193.272 38.48 192.088 38.48Z" fill="white"/>
</svg>
