<svg width="156" height="30" viewBox="0 0 156 30" fill="none" xmlns="http://www.w3.org/2000/svg">
<path d="M18.016 27.176C17.12 27.88 16.048 28.44 14.8 28.856C13.552 29.272 12.304 29.48 11.056 29.48C8.88 29.48 6.976 29.048 5.344 28.184C3.712 27.32 2.432 26.12 1.504 24.584C0.608 23.016 0.16 21.176 0.16 19.064C0.16 16.952 0.64 15.112 1.6 13.544C2.592 11.976 3.872 10.776 5.44 9.944C7.04 9.08 8.752 8.648 10.576 8.648C12.176 8.648 13.6 8.872 14.848 9.32C16.128 9.768 17.216 10.376 18.112 11.144L15.904 14.024C15.328 13.576 14.624 13.176 13.792 12.824C12.96 12.472 12.016 12.296 10.96 12.296C9.808 12.296 8.736 12.6 7.744 13.208C6.784 13.784 6.016 14.584 5.44 15.608C4.896 16.632 4.624 17.784 4.624 19.064C4.624 20.28 4.912 21.416 5.488 22.472C6.064 23.496 6.864 24.312 7.888 24.92C8.912 25.496 10.08 25.784 11.392 25.784C12.256 25.784 13.04 25.656 13.744 25.4C14.48 25.144 15.136 24.792 15.712 24.344L18.016 27.176ZM22.0506 18.872C22.0506 16.888 22.5146 15.096 23.4426 13.496C24.4026 11.896 25.7146 10.632 27.3786 9.704C29.0426 8.776 30.9306 8.312 33.0426 8.312C35.2186 8.312 37.1226 8.776 38.7546 9.704C40.3866 10.632 41.6506 11.896 42.5466 13.496C43.4426 15.096 43.8906 16.888 43.8906 18.872C43.8906 20.856 43.4426 22.664 42.5466 24.296C41.6506 25.896 40.3706 27.16 38.7066 28.088C37.0746 29.016 35.1706 29.48 32.9946 29.48C30.8826 29.48 28.9946 29.048 27.3306 28.184C25.6986 27.288 24.4026 26.056 23.4426 24.488C22.5146 22.888 22.0506 21.016 22.0506 18.872ZM26.5146 18.92C26.5146 20.2 26.8026 21.368 27.3786 22.424C27.9546 23.448 28.7226 24.264 29.6826 24.872C30.6746 25.48 31.7626 25.784 32.9466 25.784C34.1946 25.784 35.2986 25.48 36.2586 24.872C37.2506 24.264 38.0186 23.448 38.5626 22.424C39.1066 21.368 39.3786 20.2 39.3786 18.92C39.3786 17.64 39.1066 16.488 38.5626 15.464C38.0186 14.408 37.2506 13.576 36.2586 12.968C35.2986 12.328 34.1946 12.008 32.9466 12.008C31.7306 12.008 30.6266 12.328 29.6346 12.968C28.6746 13.608 27.9066 14.456 27.3306 15.512C26.7866 16.536 26.5146 17.672 26.5146 18.92ZM53.9189 9.128L54.3029 13.976L54.1109 13.208C54.7509 11.736 55.7909 10.568 57.2309 9.704C58.6709 8.808 60.3349 8.36 62.2229 8.36C64.1109 8.36 65.6469 8.92 66.8309 10.04C68.0469 11.128 68.6709 12.552 68.7029 14.312V29H64.1909V15.896C64.1589 14.808 63.8389 13.928 63.2309 13.256C62.6549 12.552 61.7429 12.2 60.4949 12.2C59.3429 12.2 58.3029 12.52 57.3749 13.16C56.4469 13.8 55.7109 14.68 55.1669 15.8C54.6549 16.92 54.3989 18.216 54.3989 19.688V29H49.9349V9.128H53.9189ZM78.3861 0.391999H82.8501V9.224H88.3221V12.728H82.8501V29H78.3861V12.728H74.7381V9.224H78.3861V0.391999ZM101.972 29.48C100.116 29.48 98.4201 29.08 96.8841 28.28C95.3801 27.48 94.1801 26.312 93.2841 24.776C92.4201 23.208 91.9881 21.304 91.9881 19.064C91.9881 16.856 92.4521 14.952 93.3801 13.352C94.3081 11.72 95.5401 10.472 97.0761 9.608C98.6441 8.744 100.356 8.312 102.212 8.312C104.068 8.312 105.636 8.744 106.916 9.608C108.196 10.44 109.172 11.432 109.844 12.584L109.556 13.352L109.988 9.128H114.116V29H109.652V23.816L110.132 24.968C110.004 25.288 109.716 25.704 109.268 26.216C108.852 26.696 108.276 27.192 107.54 27.704C106.836 28.216 106.02 28.648 105.092 29C104.164 29.32 103.124 29.48 101.972 29.48ZM103.172 25.784C104.292 25.784 105.3 25.576 106.196 25.16C107.092 24.744 107.828 24.168 108.404 23.432C109.012 22.664 109.428 21.752 109.652 20.696V16.808C109.396 15.848 108.948 15.016 108.308 14.312C107.668 13.576 106.9 13.016 106.004 12.632C105.108 12.216 104.116 12.008 103.028 12.008C101.844 12.008 100.756 12.296 99.7641 12.872C98.7721 13.448 97.9721 14.248 97.3641 15.272C96.7881 16.296 96.5001 17.496 96.5001 18.872C96.5001 20.152 96.8041 21.32 97.4121 22.376C98.0201 23.432 98.8361 24.264 99.8601 24.872C100.884 25.48 101.988 25.784 103.172 25.784ZM137.969 27.176C137.073 27.88 136.001 28.44 134.753 28.856C133.505 29.272 132.257 29.48 131.009 29.48C128.833 29.48 126.929 29.048 125.297 28.184C123.665 27.32 122.385 26.12 121.457 24.584C120.561 23.016 120.113 21.176 120.113 19.064C120.113 16.952 120.593 15.112 121.553 13.544C122.545 11.976 123.825 10.776 125.393 9.944C126.993 9.08 128.705 8.648 130.529 8.648C132.129 8.648 133.553 8.872 134.801 9.32C136.081 9.768 137.169 10.376 138.065 11.144L135.857 14.024C135.281 13.576 134.577 13.176 133.745 12.824C132.913 12.472 131.969 12.296 130.913 12.296C129.761 12.296 128.689 12.6 127.697 13.208C126.737 13.784 125.969 14.584 125.393 15.608C124.849 16.632 124.577 17.784 124.577 19.064C124.577 20.28 124.865 21.416 125.441 22.472C126.017 23.496 126.817 24.312 127.841 24.92C128.865 25.496 130.033 25.784 131.345 25.784C132.209 25.784 132.993 25.656 133.697 25.4C134.433 25.144 135.089 24.792 135.665 24.344L137.969 27.176ZM145.652 0.391999H150.116V9.224H155.588V12.728H150.116V29H145.652V12.728H142.004V9.224H145.652V0.391999Z" fill="white"/>
</svg>
