<svg width="270" height="463" viewBox="0 0 270 463" fill="none" xmlns="http://www.w3.org/2000/svg">
<path d="M239 186.307H255V448H15V144H224V171.307V186.307H239Z" stroke="white" stroke-width="30"/>
<path d="M86 395.2C75.6 395.2 66.6667 391.667 59.2 384.6C51.7333 377.467 48 368.7 48 358.3C48 347.833 51.2667 339.067 57.8 332C64.3333 324.867 72.7 321.3 82.9 321.3C90.9 321.3 99 322.633 107.2 325.3L105.9 329.3C97.9 326.9 90.2333 325.7 82.9 325.7C74.1667 325.7 67.0333 328.833 61.5 335.1C55.9667 341.367 53.2 349.033 53.2 358.1C53.2 367.167 56.4 374.9 62.8 381.3C69.2667 387.633 77 390.8 86 390.8C93.8667 390.8 100.667 389.6 106.4 387.2L107.9 390.6C105.367 392.067 102.033 393.2 97.9 394C93.8333 394.8 89.8667 395.2 86 395.2ZM186.547 379.5L210.547 322.5H215.647L184.847 394.6H182.047L151.147 322.5H156.547L180.547 379.3C182.214 383.367 183.247 386.167 183.647 387.7C184.18 385.567 185.147 382.833 186.547 379.5Z" fill="white"/>
<path d="M59.2 384.6L55.7461 388.215L55.7546 388.223L55.7631 388.231L59.2 384.6ZM57.8 332L61.4714 335.394L61.4793 335.386L61.4872 335.377L57.8 332ZM107.2 325.3L111.955 326.845L113.5 322.091L108.746 320.545L107.2 325.3ZM105.9 329.3L104.463 334.089L109.145 335.494L110.655 330.845L105.9 329.3ZM61.5 335.1L57.752 331.791L57.752 331.791L61.5 335.1ZM62.8 381.3L59.2645 384.836L59.2829 384.854L59.3015 384.872L62.8 381.3ZM106.4 387.2L110.975 385.182L108.994 380.694L104.469 382.588L106.4 387.2ZM107.9 390.6L110.405 394.927L114.283 392.682L112.475 388.582L107.9 390.6ZM97.9 394L96.9499 389.091L96.9424 389.093L96.9349 389.094L97.9 394ZM86 390.2C76.8619 390.2 69.1631 387.145 62.6369 380.969L55.7631 388.231C64.1702 396.188 74.3381 400.2 86 400.2V390.2ZM62.6539 380.985C56.1827 374.802 53 367.345 53 358.3H43C43 370.055 47.284 380.131 55.7461 388.215L62.6539 380.985ZM53 358.3C53 348.972 55.8703 341.453 61.4714 335.394L54.1286 328.606C46.663 336.681 43 346.695 43 358.3H53ZM61.4872 335.377C67.0168 329.34 74.0161 326.3 82.9 326.3V316.3C71.3839 316.3 61.6499 320.394 54.1128 328.623L61.4872 335.377ZM82.9 326.3C90.3356 326.3 97.9142 327.538 105.654 330.055L108.746 320.545C100.086 317.729 91.4644 316.3 82.9 316.3V326.3ZM102.445 323.755L101.145 327.755L110.655 330.845L111.955 326.845L102.445 323.755ZM107.337 324.511C98.9342 321.99 90.7821 320.7 82.9 320.7V330.7C89.6846 330.7 96.8658 331.81 104.463 334.089L107.337 324.511ZM82.9 320.7C72.8055 320.7 64.2816 324.396 57.752 331.791L65.248 338.409C69.7851 333.271 75.5278 330.7 82.9 330.7V320.7ZM57.752 331.791C51.341 339.051 48.2 347.926 48.2 358.1H58.2C58.2 350.141 60.5923 343.682 65.248 338.409L57.752 331.791ZM48.2 358.1C48.2 368.49 51.925 377.496 59.2645 384.836L66.3355 377.764C60.875 372.304 58.2 365.843 58.2 358.1H48.2ZM59.3015 384.872C66.6967 392.115 75.6836 395.8 86 395.8V385.8C78.3164 385.8 71.8367 383.152 66.2985 377.728L59.3015 384.872ZM86 395.8C94.3601 395.8 101.847 394.526 108.331 391.812L104.469 382.588C99.4865 384.674 93.3733 385.8 86 385.8V395.8ZM101.825 389.218L103.325 392.618L112.475 388.582L110.975 385.182L101.825 389.218ZM105.395 386.273C103.505 387.367 100.755 388.355 96.9499 389.091L98.8501 398.909C103.312 398.045 107.228 396.766 110.405 394.927L105.395 386.273ZM96.9349 389.094C93.1635 389.836 89.5204 390.2 86 390.2V400.2C90.2129 400.2 94.5031 399.764 98.8651 398.906L96.9349 389.094ZM186.547 379.5L181.939 377.56L181.937 377.564L186.547 379.5ZM210.547 322.5V317.5H207.227L205.939 320.56L210.547 322.5ZM215.647 322.5L220.245 324.464L223.22 317.5H215.647V322.5ZM184.847 394.6V399.6H188.148L189.445 396.564L184.847 394.6ZM182.047 394.6L177.451 396.57L178.75 399.6H182.047V394.6ZM151.147 322.5V317.5H143.564L146.551 324.47L151.147 322.5ZM156.547 322.5L161.153 320.554L159.862 317.5H156.547V322.5ZM180.547 379.3L185.173 377.404L185.163 377.379L185.153 377.354L180.547 379.3ZM183.647 387.7L178.809 388.962L188.498 388.913L183.647 387.7ZM191.155 381.44L215.155 324.44L205.939 320.56L181.939 377.56L191.155 381.44ZM210.547 327.5H215.647V317.5H210.547V327.5ZM211.049 320.536L180.249 392.636L189.445 396.564L220.245 324.464L211.049 320.536ZM184.847 389.6H182.047V399.6H184.847V389.6ZM186.643 392.63L155.743 320.53L146.551 324.47L177.451 396.57L186.643 392.63ZM151.147 327.5H156.547V317.5H151.147V327.5ZM151.941 324.446L175.941 381.246L185.153 377.354L161.153 320.554L151.941 324.446ZM175.92 381.196C177.601 385.297 178.506 387.8 178.809 388.962L188.485 386.438C187.988 384.533 186.826 381.437 185.173 377.404L175.92 381.196ZM188.498 388.913C188.943 387.132 189.801 384.664 191.157 381.436L181.937 377.564C180.492 381.003 179.418 384.001 178.796 386.487L188.498 388.913Z" fill="white"/>
<path d="M112.929 288.071C116.834 291.976 123.166 291.976 127.071 288.071L190.711 224.431C194.616 220.526 194.616 214.195 190.711 210.289C186.805 206.384 180.474 206.384 176.569 210.289L120 266.858L63.4315 210.289C59.5262 206.384 53.1946 206.384 49.2893 210.289C45.3841 214.195 45.3841 220.526 49.2893 224.431L112.929 288.071ZM110 0L110 281H130L130 0L110 0Z" fill="white"/>
</svg>
