<svg width="2644" height="1201" viewBox="0 0 2644 1201" xmlns="http://www.w3.org/2000/svg">
<path d="M1261 617.574H1303.43L1321 660L1303.43 702.426H1261H1218.57L1201 660L1218.57 617.574H1261Z"  fill-opacity="0.13"/>
<path d="M1261 480L1303.43 497.574V534V582.426L1261 600L1218.57 582.426L1201 540L1218.57 497.574L1261 480Z"  fill-opacity="0.13"/>
<path d="M1381 480L1423.43 497.574L1441 540L1423.43 582.426H1381H1338.57L1321 540L1338.57 497.574L1381 480Z"  fill-opacity="0.13"/>
<path d="M1381 600L1423.43 617.574V660V702.426L1381 720L1338.57 702.426L1321 660L1338.57 617.574L1381 600Z"  fill-opacity="0.13"/>
<path d="M1501 480V540H1561L1543.43 582.426L1501 600L1458.57 582.426L1441 540L1458.57 497.574L1501 480Z"  fill-opacity="0.13"/>
<path d="M1501 600L1543.43 617.574L1561 660L1543.43 702.426L1501 720L1458.57 702.426V660V617.574L1501 600Z"  fill-opacity="0.13"/>
<path d="M1261 360L1303.43 377.574L1321 420L1303.43 462.426L1261 480V420H1201L1218.57 377.574L1261 360Z"  fill-opacity="0.13"/>
<path d="M1261 240L1303.43 257.574L1321 300L1303.43 342.426H1261H1218.57L1201 300L1218.57 257.574L1261 240Z"  fill-opacity="0.13"/>
<path d="M1141 240L1183.43 257.574L1202 300L1183.43 342.426L1141 360L1098.57 342.426L1098.57 300L1098.57 257.574L1141 240Z"  fill-opacity="0.13"/>
<path d="M781 720L823.426 737.574V780V822.426L781 840L738.574 822.426L721 780L738.574 737.574L781 720Z"  fill-opacity="0.13"/>
<path d="M781 840L823.426 857.574V900V942.426L781 960L738.574 942.426L721 900L738.574 857.574L781 840Z"  fill-opacity="0.13"/>
<path d="M1381 240L1423.43 257.574V300V342.426L1381 360L1338.57 342.426L1321 300L1338.57 257.574L1381 240Z"  fill-opacity="0.13"/>
<path d="M1381 377.574L1423.43 377.574L1441 420L1423.43 462.426L1381 480L1338.57 462.426L1321 420L1338.57 377.574L1381 377.574Z"  fill-opacity="0.13"/>
<path d="M1501 240L1543.43 257.574L1561 300H1501V360L1458.57 342.426L1441 300L1458.57 257.574L1501 240Z"  fill-opacity="0.13"/>
<path d="M1501 360L1543.43 377.574L1561 420L1543.43 462.426L1501 480V420H1441L1458.57 377.574L1501 360Z"  fill-opacity="0.13"/>
<path d="M1621 377.574L1663.43 377.574L1681 420L1663.43 462.426L1621 480L1578.57 462.426L1561 420L1578.57 377.574L1621 377.574Z"  fill-opacity="0.13"/>
<path d="M1621 240L1663.43 257.574L1681 300H1621V360L1578.57 342.426L1561 300L1578.57 257.574L1621 240Z"  fill-opacity="0.13"/>
<path d="M1741 240L1783.43 257.574L1801 300L1783.43 342.426H1741H1698.57L1681 300L1698.57 257.574L1741 240Z"  fill-opacity="0.13"/>
<path d="M1741 360L1783.43 377.574L1801 420L1783.43 462.426L1741 480L1698.57 462.426V420V377.574L1741 360Z"  fill-opacity="0.13"/>
<path d="M1861 240L1903.43 257.574L1921 300L1903.43 342.426L1861 360L1818.57 342.426L1818.57 300L1818.57 257.574L1861 240Z"  fill-opacity="0.13"/>
<path d="M1861 360L1903.43 377.574L1921 420L1903.43 462.426H1861H1818.57L1801 420L1818.57 377.574L1861 360Z"  fill-opacity="0.13"/>
<path d="M1621 600L1663.43 617.574V660V702.426L1621 720L1578.57 702.426L1561 660L1578.57 617.574L1621 600Z"  fill-opacity="0.13"/>
<path d="M1621 497.574H1663.43L1681 540L1663.43 582.426L1621 600L1578.57 582.426L1561 540L1578.57 497.574H1621Z"  fill-opacity="0.13"/>
<path d="M1741 480L1783.43 497.574L1801 540L1783.43 582.426L1741 600V540H1681L1698.57 497.574L1741 480Z"  fill-opacity="0.13"/>
<path d="M1741 617.574H1783.43L1801 660L1783.43 702.426L1741 720L1698.57 702.426L1681 660L1698.57 617.574H1741Z"  fill-opacity="0.13"/>
<path d="M1861 497.574H1903.43L1921 540L1903.43 582.426L1861 600L1818.57 582.426L1801 540L1818.57 497.574H1861Z"  fill-opacity="0.13"/>
<path d="M1861 600L1903.43 617.574L1921 660L1903.43 702.426H1861H1818.57L1818.57 660L1818.57 617.574L1861 600Z"  fill-opacity="0.13"/>
<path d="M1621 840V900H1681L1663.43 942.426L1621 960L1578.57 942.426L1561 900L1578.57 857.574L1621 840Z"  fill-opacity="0.13"/>
<path d="M1621 737.574H1663.43L1681 780L1663.43 822.426L1621 840L1578.57 822.426L1561 780L1578.57 737.574H1621Z"  fill-opacity="0.13"/>
<path d="M1741 720L1783.43 737.574V780V822.426L1741 840L1698.57 822.426L1681 780L1698.57 737.574L1741 720Z"  fill-opacity="0.13"/>
<path d="M1741 857.574H1783.43L1801 900L1783.43 942.426L1741 960L1698.57 942.426L1681 900L1698.57 857.574H1741Z"  fill-opacity="0.13"/>
<path d="M1861 720L1903.43 737.574L1921 780L1903.43 822.426H1861H1818.57L1801 780L1818.57 737.574L1861 720Z"  fill-opacity="0.13"/>
<path d="M1861 840L1903.43 857.574L1921 900L1903.43 942.426L1861 960L1818.57 942.426L1818.57 895L1818.57 857.574L1861 840Z"  fill-opacity="0.13"/>
<path d="M1261 840L1303.43 857.574V900V942.426L1261 960L1218.57 942.426L1201 900L1218.57 857.574L1261 840Z"  fill-opacity="0.13"/>
<path d="M1261 720L1303.43 737.574L1321 780L1303.43 822.426L1261 840L1218.57 822.426L1201 780H1266L1261 720Z"  fill-opacity="0.13"/>
<path d="M1381 720L1423.43 737.574L1441 780L1378 784L1381 840L1338.57 822.426L1321 780L1338.57 737.574L1381 720Z"  fill-opacity="0.13"/>
<path d="M1381 840V900H1441L1423.43 942.426L1381 960L1338.57 942.426L1321 900L1338.57 857.574L1381 840Z"  fill-opacity="0.13"/>
<path d="M1501 720L1543.43 737.574L1561 780L1543.43 822.426H1501H1458.57L1441 780L1458.57 737.574L1501 720Z"  fill-opacity="0.13"/>
<path d="M1501 840L1543.43 857.574L1561 900L1543.43 942.426L1501 960L1458.57 942.426V900V857.574L1501 840Z"  fill-opacity="0.13"/>
<path d="M901 857.574H943.426L961 900L943.426 942.426L901 960L858.574 942.426L841 900L858.574 857.574H901Z"  fill-opacity="0.13"/>
<path d="M901 720L943.426 737.574L961 780L943.426 822.426L901 840V780H841L858.574 737.574L901 720Z"  fill-opacity="0.13"/>
<path d="M1021 720L1063.43 737.574L1081 780H1021V840L978.574 822.426L961 780L978.574 737.574L1021 720Z"  fill-opacity="0.13"/>
<path d="M1021 857.574H1063.43L1081 900L1063.43 942.426L1021 960L978.574 942.426L961 900L978.574 857.574H1021Z"  fill-opacity="0.13"/>
<path d="M1141 720L1183.43 737.574L1201 780L1183.43 822.426L1141 840L1098.57 822.426L1098.57 780L1098.57 737.574L1141 720Z"  fill-opacity="0.13"/>
<path d="M1141 840L1183.43 857.574V900V942.426L1141 960L1098.57 942.426L1081 900L1098.57 857.574L1141 840Z"  fill-opacity="0.13"/>
<path d="M781 600L823.426 617.574L841 660L823.426 702.426H781H738.574L721 660L738.574 617.574L781 600Z"  fill-opacity="0.13"/>
<path d="M781 480L823.426 497.574V540V582.426L781 600L738.574 582.426L721 540L738.574 497.574L781 480Z"  fill-opacity="0.13"/>
<path d="M901 480V540H961L943.426 582.426L901 600L858.574 582.426L841 540L858.574 497.574L901 480Z"  fill-opacity="0.13"/>
<path d="M901 600L943.426 617.574L961 660L943.426 702.426L901 720L858.574 702.426L858.574 660L858.574 617.574L901 600Z"  fill-opacity="0.13"/>
<path d="M1021 480L1063.43 497.574L1081 540L1063.43 582.426L1021 600L978.574 582.426L978.574 540L978.574 497.574L1021 480Z"  fill-opacity="0.13"/>
<path d="M1021 617.574H1063.43L1081 660L1063.43 702.426L1021 720L978.574 702.426L961 660L978.574 617.574H1021Z"  fill-opacity="0.13"/>
<path d="M781 360V420H841L823.426 462.426L781 480L738.574 462.426L721 420L738.574 377.574L781 360Z"  fill-opacity="0.13"/>
<path d="M781 240L823.426 257.574V300V342.426L781 360L738.574 342.426L721 300L738.574 257.574L781 240Z"  fill-opacity="0.13"/>
<path d="M901 240L943.426 257.574V300V342.426L901 360L858.574 342.426L841 300L858.574 257.574L901 240Z"  fill-opacity="0.13"/>
<path d="M901 377.574L943.426 377.574L961 420L943.426 462.426L901 480L858.574 462.426L841 420L858.574 377.574L901 377.574Z"  fill-opacity="0.13"/>
<path d="M1021 240L1063.43 257.574L1081 300H1021V360L978.574 342.426L961 300L978.574 257.574L1021 240Z"  fill-opacity="0.13"/>
<path d="M1021 360L1063.43 377.574L1081 420L1063.43 462.426L1021 480V420H961L978.574 377.574L1021 360Z"  fill-opacity="0.13"/>
<path d="M1141 600L1183.43 617.574L1201 660L1183.43 702.426L1141 720L1098.57 702.426L1098.57 660L1098.57 617.574L1141 600Z"  fill-opacity="0.13"/>
<path d="M1141 480L1183.43 497.574L1201 540L1183.43 582.426L1141 600L1098.57 582.426L1081 540H1141V480Z"  fill-opacity="0.13"/>
<path d="M1141 360L1183.43 377.574L1201 420L1183.43 462.426L1141 480H1081V420L1098.57 377.574L1141 360Z"  fill-opacity="0.13"/>
<path d="M2100 0L2142.43 17.5736L2161 60L2142.43 102.426L2100 120L2057.57 102.426L2057.57 60L2057.57 17.5736L2100 0Z"  fill-opacity="0.13"/>
<path d="M1740 120V180H1800L1782.43 222.426L1740 240L1697.57 222.426L1680 180L1697.57 137.574L1740 120Z"  fill-opacity="0.13"/>
<path d="M1740 0L1782.43 17.5736V60V102.426L1740 120L1697.57 102.426L1680 60L1697.57 17.5736L1740 0Z"  fill-opacity="0.13"/>
<path d="M1860 0L1902.43 17.5736V60V102.426L1860 120L1817.57 102.426L1800 60L1817.57 17.5736L1860 0Z"  fill-opacity="0.13"/>
<path d="M1860 137.574L1902.43 137.574L1920 180L1902.43 222.426L1860 240L1817.57 222.426L1800 180L1817.57 137.574L1860 137.574Z"  fill-opacity="0.13"/>
<path d="M1980 0L2022.43 17.5736L2040 60H1980V120L1937.57 102.426L1920 60L1937.57 17.5736L1980 0Z"  fill-opacity="0.13"/>
<path d="M1980 120L2022.43 137.574L2040 180L2022.43 222.426L1980 240V180H1920L1937.57 137.574L1980 120Z"  fill-opacity="0.13"/>
<path d="M2100 120L2142.43 137.574L2160 180L2142.43 222.426L2100 240H2040V180L2057.57 137.574L2100 120Z"  fill-opacity="0.13"/>
<path d="M1261 1080L1303.43 1097.57L1321 1140L1303.43 1182.43L1261 1200V1140H1201L1218.57 1097.57L1261 1080Z"  fill-opacity="0.13"/>
<path d="M1261 960L1303.43 977.574L1321 1020L1303.43 1062.43H1261H1218.57L1201 1020L1218.57 977.574L1261 960Z"  fill-opacity="0.13"/>
<path d="M1141 960L1183.43 977.574L1202 1020L1183.43 1062.43L1141 1080L1098.57 1062.43L1098.57 1020L1098.57 977.574L1141 960Z"  fill-opacity="0.13"/>
<path d="M1381 960L1423.43 977.574V1020V1062.43L1381 1080L1338.57 1062.43L1321 1020L1338.57 977.574L1381 960Z"  fill-opacity="0.13"/>
<path d="M1381 1097.57L1423.43 1097.57L1441 1140L1423.43 1182.43L1381 1200L1338.57 1182.43L1321 1140L1338.57 1097.57L1381 1097.57Z"  fill-opacity="0.13"/>
<path d="M1501 960L1543.43 977.574L1561 1020H1501V1080L1458.57 1062.43L1441 1020L1458.57 977.574L1501 960Z"  fill-opacity="0.13"/>
<path d="M1501 1080L1543.43 1097.57L1561 1140L1543.43 1182.43L1501 1200V1140H1441L1458.57 1097.57L1501 1080Z"  fill-opacity="0.13"/>
<path d="M1621 1097.57L1663.43 1097.57L1681 1140L1663.43 1182.43L1621 1200L1578.57 1182.43L1561 1140L1578.57 1097.57L1621 1097.57Z"  fill-opacity="0.13"/>
<path d="M1621 960L1663.43 977.574L1681 1020H1621V1080L1578.57 1062.43L1561 1020L1578.57 977.574L1621 960Z"  fill-opacity="0.13"/>
<path d="M1741 960L1783.43 977.574L1801 1020L1783.43 1062.43H1741H1698.57L1681 1020L1698.57 977.574L1741 960Z"  fill-opacity="0.13"/>
<path d="M1741 1080L1783.43 1097.57L1801 1140L1783.43 1182.43L1741 1200L1698.57 1182.43V1140V1097.57L1741 1080Z"  fill-opacity="0.13"/>
<path d="M1981 377.574L2023.43 377.574L2041 420L2023.43 462.426L1981 480L1938.57 462.426L1921 420L1938.57 377.574L1981 377.574Z"  fill-opacity="0.13"/>
<path d="M1981 240L2023.43 257.574L2041 300H1981V360L1938.57 342.426L1921 300L1938.57 257.574L1981 240Z"  fill-opacity="0.13"/>
<path d="M2101 240L2143.43 257.574L2161 300L2143.43 342.426H2101H2058.57L2041 300L2058.57 257.574L2101 240Z"  fill-opacity="0.13"/>
<path d="M2101 360L2143.43 377.574L2161 420L2143.43 462.426L2101 480L2058.57 462.426V420V377.574L2101 360Z"  fill-opacity="0.13"/>
<path d="M1981 600L2023.43 617.574V660V702.426L1981 720L1938.57 702.426L1921 660L1938.57 617.574L1981 600Z"  fill-opacity="0.13"/>
<path d="M1981 497.574H2023.43L2041 540L2023.43 582.426L1981 600L1938.57 582.426L1921 540L1938.57 497.574H1981Z"  fill-opacity="0.13"/>
<path d="M2101 480L2143.43 497.574L2161 540L2143.43 582.426L2101 600V540H2041L2058.57 497.574L2101 480Z"  fill-opacity="0.13"/>
<path d="M2101 617.574H2143.43L2161 660L2143.43 702.426L2101 720L2058.57 702.426L2041 660L2058.57 617.574H2101Z"  fill-opacity="0.13"/>
<path d="M542 858.574L584.426 858.574L602 901L584.426 943.426L542 961L499.574 943.426L482 901L499.574 858.574L542 858.574Z"  fill-opacity="0.13"/>
<path d="M542 721L584.426 738.574L602 781H542V841L499.574 823.426L482 781L499.574 738.574L542 721Z"  fill-opacity="0.13"/>
<path d="M662 721L704.426 738.574L722 781L704.426 823.426H662H619.574L602 781L619.574 738.574L662 721Z"  fill-opacity="0.13"/>
<path d="M662 841L704.426 858.574L722 901L704.426 943.426L662 961L619.574 943.426V901V858.574L662 841Z"  fill-opacity="0.13"/>
<path d="M542 1081L584.426 1098.57V1141V1183.43L542 1201L499.574 1183.43L482 1141L499.574 1098.57L542 1081Z"  fill-opacity="0.13"/>
<path d="M542 978.574H584.426L602 1021L584.426 1063.43L542 1081L499.574 1063.43L482 1021L499.574 978.574H542Z"  fill-opacity="0.13"/>
<path d="M662 961L704.426 978.574L722 1021L704.426 1063.43L662 1081V1021H602L619.574 978.574L662 961Z"  fill-opacity="0.13"/>
<path d="M662 1098.57H704.426L722 1141L704.426 1183.43L662 1201L619.574 1183.43L602 1141L619.574 1098.57H662Z"  fill-opacity="0.13"/>
<path d="M1981 840L2023.43 857.574L2041 900L2023.43 942.426L1981 960L1938.57 942.426L1938.57 900L1938.57 857.574L1981 840Z"  fill-opacity="0.13"/>
<path d="M1981 720.5L2023.43 737.574L2041 780L2023.43 822.426L1981 840L1938.57 822.426L1938.57 780L1938.57 737.574L1981 720.5Z"  fill-opacity="0.13"/>
<path d="M2101 720L2143.43 737.574V780V822.426L2101 840L2058.57 822.426L2041 780L2058.57 737.574L2101 720Z"  fill-opacity="0.13"/>
<path d="M2101 857.574H2143.43L2161 900L2143.43 942.426L2101 960L2058.57 942.426L2041 900L2058.57 857.574H2101Z"  fill-opacity="0.13"/>
<path d="M542 138.574L584.426 138.574L602 181L584.426 223.426L542 241L499.574 223.426L482 181L499.574 138.574L542 138.574Z"  fill-opacity="0.13"/>
<path d="M662 121L704.426 138.574L722 181L704.426 223.426L662 241L619.574 223.426V181V138.574L662 121Z"  fill-opacity="0.13"/>
<path d="M542 361L584.426 378.574V421V463.426L542 481L499.574 463.426L482 421L499.574 378.574L542 361Z"  fill-opacity="0.13"/>
<path d="M542 258.574H584.426L602 301L584.426 343.426L542 361L499.574 343.426L482 301L499.574 258.574H542Z"  fill-opacity="0.13"/>
<path d="M662 241L704.426 258.574L722 301L704.426 343.426L662 361V301H602L619.574 258.574L662 241Z"  fill-opacity="0.13"/>
<path d="M662 378.574H704.426L722 421L704.426 463.426L662 481L619.574 463.426L602 421L619.574 378.574H662Z"  fill-opacity="0.13"/>
<path d="M542 601L584.426 618.574L602 661L584.426 703.426L542 721L499.574 703.426L499.574 661L499.574 618.574L542 601Z"  fill-opacity="0.13"/>
<path d="M542 481.5L584.426 498.574L602 541L584.426 583.426L542 601L499.574 583.426L499.574 541L499.574 498.574L542 481.5Z"  fill-opacity="0.13"/>
<path d="M662 481L704.426 498.574V541V583.426L662 601L619.574 583.426L602 541L619.574 498.574L662 481Z"  fill-opacity="0.13"/>
<path d="M662 618.574H704.426L722 661L704.426 703.426L662 721L619.574 703.426L602 661L619.574 618.574H662Z"  fill-opacity="0.13"/>
<path d="M1981 1097.57L2023.43 1097.57L2041 1140L2023.43 1182.43L1981 1200L1938.57 1182.43L1921 1140L1938.57 1097.57L1981 1097.57Z"  fill-opacity="0.13"/>
<path d="M1981 960L2023.43 977.574L2041 1020H1981V1080L1938.57 1062.43L1921 1020L1938.57 977.574L1981 960Z"  fill-opacity="0.13"/>
<path d="M2101 960L2143.43 977.574L2161 1020L2143.43 1062.43H2101H2058.57L2041 1020L2058.57 977.574L2101 960Z"  fill-opacity="0.13"/>
<path d="M2101 1080L2143.43 1097.57L2161 1140L2143.43 1182.43L2101 1200L2058.57 1182.43V1140V1097.57L2101 1080Z"  fill-opacity="0.13"/>
<path d="M1861 960L1903.43 977.574L1921 1020L1903.43 1062.43L1861 1080L1818.57 1062.43L1818.57 1020L1818.57 977.574L1861 960Z"  fill-opacity="0.13"/>
<path d="M1861 1080L1903.43 1097.57L1921 1140L1903.43 1182.43H1861H1818.57L1801 1140L1818.57 1097.57L1861 1080Z"  fill-opacity="0.13"/>
<path d="M302 241L344.426 258.574L362 301L344.426 343.426H302H259.574L242 301L259.574 258.574L302 241Z"  fill-opacity="0.13"/>
<path d="M302 361L344.426 378.574L362 421L344.426 463.426L302 481L259.574 463.426V421V378.574L302 361Z"  fill-opacity="0.13"/>
<path d="M422 241L464.426 258.574L482 301L464.426 343.426L422 361L379.574 343.426L379.574 301L379.574 258.574L422 241Z"  fill-opacity="0.13"/>
<path d="M422 361L464.426 378.574L482 421L464.426 463.426H422H379.574L362 421L379.574 378.574L422 361Z"  fill-opacity="0.13"/>
<path d="M302 481L344.426 498.574L362 541L344.426 583.426L302 601V541H242L259.574 498.574L302 481Z"  fill-opacity="0.13"/>
<path d="M302 618.574H344.426L362 661L344.426 703.426L302 721L259.574 703.426L242 661L259.574 618.574H302Z"  fill-opacity="0.13"/>
<path d="M422 498.574H464.426L482 541L464.426 583.426L422 601L379.574 583.426L362 541L379.574 498.574H422Z"  fill-opacity="0.13"/>
<path d="M422 601L464.426 618.574L482 661L464.426 703.426H422H379.574L379.574 661L379.574 618.574L422 601Z"  fill-opacity="0.13"/>
<path d="M302 721L344.426 738.574V781V823.426L302 841L259.574 823.426L242 781L259.574 738.574L302 721Z"  fill-opacity="0.13"/>
<path d="M302 858.574H344.426L362 901L344.426 943.426L302 961L259.574 943.426L242 901L259.574 858.574H302Z"  fill-opacity="0.13"/>
<path d="M422 721L464.426 738.574L482 781L464.426 823.426H422H379.574L362 781L379.574 738.574L422 721Z"  fill-opacity="0.13"/>
<path d="M422 841L464.426 858.574L482 901L464.426 943.426L422 961L379.574 943.426L379.574 896L379.574 858.574L422 841Z"  fill-opacity="0.13"/>
<path d="M301 121V181H361L343.426 223.426L301 241L258.574 223.426L241 181L258.574 138.574L301 121Z"  fill-opacity="0.13"/>
<path d="M301 1L343.426 18.5736V61V103.426L301 121L258.574 103.426L241 61L258.574 18.5736L301 1Z"  fill-opacity="0.13"/>
<path d="M421 1L463.426 18.5736V61V103.426L421 121L378.574 103.426L361 61L378.574 18.5736L421 1Z"  fill-opacity="0.13"/>
<path d="M421 138.574L463.426 138.574L481 181L463.426 223.426L421 241L378.574 223.426L361 181L378.574 138.574L421 138.574Z"  fill-opacity="0.13"/>
<path d="M302 961L344.426 978.574L362 1021L344.426 1063.43H302H259.574L242 1021L259.574 978.574L302 961Z"  fill-opacity="0.13"/>
<path d="M302 1081L344.426 1098.57L362 1141L344.426 1183.43L302 1201L259.574 1183.43V1141V1098.57L302 1081Z"  fill-opacity="0.13"/>
<path d="M422 961L464.426 978.574L482 1021L464.426 1063.43L422 1081L379.574 1063.43L379.574 1021L379.574 978.574L422 961Z"  fill-opacity="0.13"/>
<path d="M422 1081L464.426 1098.57L482 1141L464.426 1183.43H422H379.574L362 1141L379.574 1098.57L422 1081Z"  fill-opacity="0.13"/>
<path d="M542.426 1L584.853 18.5736L602.426 61L584.853 103.426L542.426 121L500 103.426V61V18.5736L542.426 1Z"  fill-opacity="0.13"/>
<path d="M782.426 18.5736L824.853 18.5736L842.426 61L824.853 103.426L782.426 121L740 103.426L722.426 61L740 18.5736L782.426 18.5736Z"  fill-opacity="0.13"/>
<path d="M902.426 1L944.853 18.5736L962.426 61L944.853 103.426L902.426 121L860 103.426V61V18.5736L902.426 1Z"  fill-opacity="0.13"/>
<path d="M662.426 1L704.853 18.5736L722.426 61L704.853 103.426H662.426H620L602.426 61L620 18.5736L662.426 1Z"  fill-opacity="0.13"/>
<path d="M2463 858.574L2505.43 858.574L2523 901L2505.43 943.426L2463 961L2420.57 943.426L2403 901L2420.57 858.574L2463 858.574Z"  fill-opacity="0.13"/>
<path d="M2463 721L2505.43 738.574L2523 781H2463V841L2420.57 823.426L2403 781L2420.57 738.574L2463 721Z"  fill-opacity="0.13"/>
<path d="M2583 721L2625.43 738.574L2643 781L2625.43 823.426H2583H2540.57L2523 781L2540.57 738.574L2583 721Z"  fill-opacity="0.13"/>
<path d="M2583 841L2625.43 858.574L2643 901L2625.43 943.426L2583 961L2540.57 943.426V901V858.574L2583 841Z"  fill-opacity="0.13"/>
<path d="M2463 1081L2505.43 1098.57V1141V1183.43L2463 1201L2420.57 1183.43L2403 1141L2420.57 1098.57L2463 1081Z"  fill-opacity="0.13"/>
<path d="M2463 978.574H2505.43L2523 1021L2505.43 1063.43L2463 1081L2420.57 1063.43L2403 1021L2420.57 978.574H2463Z"  fill-opacity="0.13"/>
<path d="M2583 961L2625.43 978.574L2643 1021L2625.43 1063.43L2583 1081V1021H2523L2540.57 978.574L2583 961Z"  fill-opacity="0.13"/>
<path d="M2583 1098.57H2625.43L2643 1141L2625.43 1183.43L2583 1201L2540.57 1183.43L2523 1141L2540.57 1098.57H2583Z"  fill-opacity="0.13"/>
<path d="M2463 138.574L2505.43 138.574L2523 181L2505.43 223.426L2463 241L2420.57 223.426L2403 181L2420.57 138.574L2463 138.574Z"  fill-opacity="0.13"/>
<path d="M2583 121L2625.43 138.574L2643 181L2625.43 223.426L2583 241L2540.57 223.426V181V138.574L2583 121Z"  fill-opacity="0.13"/>
<path d="M2463 361L2505.43 378.574V421V463.426L2463 481L2420.57 463.426L2403 421L2420.57 378.574L2463 361Z"  fill-opacity="0.13"/>
<path d="M2463 258.574H2505.43L2523 301L2505.43 343.426L2463 361L2420.57 343.426L2403 301L2420.57 258.574H2463Z"  fill-opacity="0.13"/>
<path d="M2583 241L2625.43 258.574L2643 301L2625.43 343.426L2583 361V301H2523L2540.57 258.574L2583 241Z"  fill-opacity="0.13"/>
<path d="M2583 378.574H2625.43L2643 421L2625.43 463.426L2583 481L2540.57 463.426L2523 421L2540.57 378.574H2583Z"  fill-opacity="0.13"/>
<path d="M2463 601L2505.43 618.574L2523 661L2505.43 703.426L2463 721L2420.57 703.426L2420.57 661L2420.57 618.574L2463 601Z"  fill-opacity="0.13"/>
<path d="M2463 481.5L2505.43 498.574L2523 541L2505.43 583.426L2463 601L2420.57 583.426L2420.57 541L2420.57 498.574L2463 481.5Z"  fill-opacity="0.13"/>
<path d="M2583 481L2625.43 498.574V541V583.426L2583 601L2540.57 583.426L2523 541L2540.57 498.574L2583 481Z"  fill-opacity="0.13"/>
<path d="M2583 618.574H2625.43L2643 661L2625.43 703.426L2583 721L2540.57 703.426L2523 661L2540.57 618.574H2583Z"  fill-opacity="0.13"/>
<path d="M2463.43 1L2505.85 18.5736L2523.43 61L2505.85 103.426L2463.43 121L2421 103.426V61V18.5736L2463.43 1Z"  fill-opacity="0.13"/>
<path d="M2583.43 1L2625.85 18.5736L2643.43 61L2625.85 103.426H2583.43H2541L2523.43 61L2541 18.5736L2583.43 1Z"  fill-opacity="0.13"/>
<path d="M2222 858.574L2264.43 858.574L2282 901L2264.43 943.426L2222 961L2179.57 943.426L2162 901L2179.57 858.574L2222 858.574Z"  fill-opacity="0.13"/>
<path d="M2222 721L2264.43 738.574L2282 781H2222V841L2179.57 823.426L2162 781L2179.57 738.574L2222 721Z"  fill-opacity="0.13"/>
<path d="M2342 721L2384.43 738.574L2402 781L2384.43 823.426H2342H2299.57L2282 781L2299.57 738.574L2342 721Z"  fill-opacity="0.13"/>
<path d="M2342 841L2384.43 858.574L2402 901L2384.43 943.426L2342 961L2299.57 943.426V901V858.574L2342 841Z"  fill-opacity="0.13"/>
<path d="M2222 1081L2264.43 1098.57V1141V1183.43L2222 1201L2179.57 1183.43L2162 1141L2179.57 1098.57L2222 1081Z"  fill-opacity="0.13"/>
<path d="M2222 978.574H2264.43L2282 1021L2264.43 1063.43L2222 1081L2179.57 1063.43L2162 1021L2179.57 978.574H2222Z"  fill-opacity="0.13"/>
<path d="M2342 961L2384.43 978.574L2402 1021L2384.43 1063.43L2342 1081V1021H2282L2299.57 978.574L2342 961Z"  fill-opacity="0.13"/>
<path d="M2342 1098.57H2384.43L2402 1141L2384.43 1183.43L2342 1201L2299.57 1183.43L2282 1141L2299.57 1098.57H2342Z"  fill-opacity="0.13"/>
<path d="M2222 138.574L2264.43 138.574L2282 181L2264.43 223.426L2222 241L2179.57 223.426L2162 181L2179.57 138.574L2222 138.574Z"  fill-opacity="0.13"/>
<path d="M2342 121L2384.43 138.574L2402 181L2384.43 223.426L2342 241L2299.57 223.426V181V138.574L2342 121Z"  fill-opacity="0.13"/>
<path d="M2222 361L2264.43 378.574V421V463.426L2222 481L2179.57 463.426L2162 421L2179.57 378.574L2222 361Z"  fill-opacity="0.13"/>
<path d="M2222 258.574H2264.43L2282 301L2264.43 343.426L2222 361L2179.57 343.426L2162 301L2179.57 258.574H2222Z"  fill-opacity="0.13"/>
<path d="M2342 241L2384.43 258.574L2402 301L2384.43 343.426L2342 361V301H2282L2299.57 258.574L2342 241Z"  fill-opacity="0.13"/>
<path d="M2342 378.574H2384.43L2402 421L2384.43 463.426L2342 481L2299.57 463.426L2282 421L2299.57 378.574H2342Z"  fill-opacity="0.13"/>
<path d="M2222 601L2264.43 618.574L2282 661L2264.43 703.426L2222 721L2179.57 703.426L2179.57 661L2179.57 618.574L2222 601Z"  fill-opacity="0.13"/>
<path d="M2222 481.5L2264.43 498.574L2282 541L2264.43 583.426L2222 601L2179.57 583.426L2179.57 541L2179.57 498.574L2222 481.5Z"  fill-opacity="0.13"/>
<path d="M2342 481L2384.43 498.574V541V583.426L2342 601L2299.57 583.426L2282 541L2299.57 498.574L2342 481Z"  fill-opacity="0.13"/>
<path d="M2342 618.574H2384.43L2402 661L2384.43 703.426L2342 721L2299.57 703.426L2282 661L2299.57 618.574H2342Z"  fill-opacity="0.13"/>
<path d="M2222.43 1L2264.85 18.5736L2282.43 61L2264.85 103.426L2222.43 121L2180 103.426V61V18.5736L2222.43 1Z"  fill-opacity="0.13"/>
<path d="M60 0L102.426 17.5736L121 60L102.426 102.426L60 120L17.5736 102.426L17.5736 60L17.5736 17.5736L60 0Z"  fill-opacity="0.13"/>
<path d="M60 120L102.426 137.574L120 180L102.426 222.426L60 240H0V180L17.5736 137.574L60 120Z"  fill-opacity="0.13"/>
<path d="M61 240L103.426 257.574L121 300L103.426 342.426H61H18.5736L1 300L18.5736 257.574L61 240Z"  fill-opacity="0.13"/>
<path d="M61 360L103.426 377.574L121 420L103.426 462.426L61 480L18.5736 462.426V420V377.574L61 360Z"  fill-opacity="0.13"/>
<path d="M61 480L103.426 497.574L121 540L103.426 582.426L61 600V540H1L18.5736 497.574L61 480Z"  fill-opacity="0.13"/>
<path d="M61 617.574H103.426L121 660L103.426 702.426L61 720L18.5736 702.426L1 660L18.5736 617.574H61Z"  fill-opacity="0.13"/>
<path d="M61 720L103.426 737.574V780V822.426L61 840L18.5736 822.426L1 780L18.5736 737.574L61 720Z"  fill-opacity="0.13"/>
<path d="M61 857.574H103.426L121 900L103.426 942.426L61 960L18.5736 942.426L1 900L18.5736 857.574H61Z"  fill-opacity="0.13"/>
<path d="M61 960L103.426 977.574L121 1020L103.426 1062.43H61H18.5736L1 1020L18.5736 977.574L61 960Z"  fill-opacity="0.13"/>
<path d="M61 1080L103.426 1097.57L121 1140L103.426 1182.43L61 1200L18.5736 1182.43V1140V1097.57L61 1080Z"  fill-opacity="0.13"/>
<path d="M182 858.574L224.426 858.574L242 901L224.426 943.426L182 961L139.574 943.426L122 901L139.574 858.574L182 858.574Z"  fill-opacity="0.13"/>
<path d="M182 721L224.426 738.574L242 781H182V841L139.574 823.426L122 781L139.574 738.574L182 721Z"  fill-opacity="0.13"/>
<path d="M182 1081L224.426 1098.57V1141V1183.43L182 1201L139.574 1183.43L122 1141L139.574 1098.57L182 1081Z"  fill-opacity="0.13"/>
<path d="M182 978.574H224.426L242 1021L224.426 1063.43L182 1081L139.574 1063.43L122 1021L139.574 978.574H182Z"  fill-opacity="0.13"/>
<path d="M182 138.574L224.426 138.574L242 181L224.426 223.426L182 241L139.574 223.426L122 181L139.574 138.574L182 138.574Z"  fill-opacity="0.13"/>
<path d="M182 361L224.426 378.574V421V463.426L182 481L139.574 463.426L122 421L139.574 378.574L182 361Z"  fill-opacity="0.13"/>
<path d="M182 258.574H224.426L242 301L224.426 343.426L182 361L139.574 343.426L122 301L139.574 258.574H182Z"  fill-opacity="0.13"/>
<path d="M182 601L224.426 618.574L242 661L224.426 703.426L182 721L139.574 703.426L139.574 661L139.574 618.574L182 601Z"  fill-opacity="0.13"/>
<path d="M182 481.5L224.426 498.574L242 541L224.426 583.426L182 601L139.574 583.426L139.574 541L139.574 498.574L182 481.5Z"  fill-opacity="0.13"/>
<path d="M182.426 1L224.853 18.5736L242.426 61L224.853 103.426L182.426 121L140 103.426V61V18.5736L182.426 1Z"  fill-opacity="0.13"/>
<path d="M2342.43 1L2384.85 18.5736L2402.43 61L2384.85 103.426H2342.43H2300L2282.43 61L2300 18.5736L2342.43 1Z"  fill-opacity="0.13"/>
<path d="M781 1080V1140H841L823.426 1182.43L781 1200L738.574 1182.43L721 1140L738.574 1097.57L781 1080Z"  fill-opacity="0.13"/>
<path d="M781 960L823.426 977.574V1020V1062.43L781 1080L738.574 1062.43L721 1020L738.574 977.574L781 960Z"  fill-opacity="0.13"/>
<path d="M901 960L943.426 977.574V1020V1062.43L901 1080L858.574 1062.43L841 1020L858.574 977.574L901 960Z"  fill-opacity="0.13"/>
<path d="M901 1097.57L943.426 1097.57L961 1140L943.426 1182.43L901 1200L858.574 1182.43L841 1140L858.574 1097.57L901 1097.57Z"  fill-opacity="0.13"/>
<path d="M1021 960L1063.43 977.574L1081 1020H1021V1080L978.574 1062.43L961 1020L978.574 977.574L1021 960Z"  fill-opacity="0.13"/>
<path d="M1021 1080L1063.43 1097.57L1081 1140L1063.43 1182.43L1021 1200V1140H961L978.574 1097.57L1021 1080Z"  fill-opacity="0.13"/>
<path d="M1141 1080L1183.43 1097.57L1201 1140L1183.43 1182.43L1141 1200H1081V1140L1098.57 1097.57L1141 1080Z"  fill-opacity="0.13"/>
<path d="M1261 120L1303.43 137.574L1321 180L1303.43 222.426L1261 240V180H1201L1218.57 137.574L1261 120Z"  fill-opacity="0.13"/>
<path d="M1261 0L1303.43 17.5736L1321 60L1303.43 102.426H1261H1218.57L1201 60L1218.57 17.5736L1261 0Z"  fill-opacity="0.13"/>
<path d="M1141 0L1183.43 17.5736L1202 60L1183.43 102.426L1141 120L1098.57 102.426L1098.57 60L1098.57 17.5736L1141 0Z"  fill-opacity="0.13"/>
<path d="M1381 0L1423.43 17.5736V60V102.426L1381 120L1338.57 102.426L1321 60L1338.57 17.5736L1381 0Z"  fill-opacity="0.13"/>
<path d="M1381 137.574L1423.43 137.574L1441 180L1423.43 222.426L1381 240L1338.57 222.426L1321 180L1338.57 137.574L1381 137.574Z"  fill-opacity="0.13"/>
<path d="M1501 0L1543.43 17.5736L1561 60H1501V120L1458.57 102.426L1441 60L1458.57 17.5736L1501 0Z"  fill-opacity="0.13"/>
<path d="M782 121L824.426 138.574V181V223.426L782 241L739.574 223.426L722 181L739.574 138.574L782 121Z"  fill-opacity="0.13"/>
<path d="M902 121L944.426 138.574L962 181H902V241L859.574 223.426L842 181L859.574 138.574L902 121Z"  fill-opacity="0.13"/>
<path d="M1501 120L1543.43 137.574L1561 180L1543.43 222.426L1501 240V180H1441L1458.57 137.574L1501 120Z"  fill-opacity="0.13"/>
<path d="M1621 137.574L1663.43 137.574L1681 180L1663.43 222.426L1621 240L1578.57 222.426L1561 180L1578.57 137.574L1621 137.574Z"  fill-opacity="0.13"/>
<path d="M1621 0L1663.43 17.5736L1681 60H1621V120L1578.57 102.426L1561 60L1578.57 17.5736L1621 0Z"  fill-opacity="0.13"/>
<path d="M1021 0L1063.43 17.5736L1081 60H1021V120L978.574 102.426L961 60L978.574 17.5736L1021 0Z"  fill-opacity="0.13"/>
<path d="M1021 120L1063.43 137.574L1081 180L1063.43 222.426L1021 240V180H961L978.574 137.574L1021 120Z"  fill-opacity="0.13"/>
<path d="M1141 120L1183.43 137.574L1201 180L1183.43 222.426L1141 240H1081V180L1098.57 137.574L1141 120Z"  fill-opacity="0.13"/>
<!-- <g style="mix-blend-mode:normal">
<path d="M1634.09 665.932L1623.07 637.365C1622.74 636.516 1622.4 635.536 1622.04 634.425C1621.68 633.282 1621.34 632.073 1621.01 630.799C1620.33 633.445 1619.62 635.65 1618.9 637.414L1607.88 665.932H1634.09ZM1653.89 692H1646.54C1645.69 692 1645.01 691.788 1644.48 691.363C1643.96 690.938 1643.57 690.399 1643.31 689.746L1636.74 672.792H1605.23L1598.67 689.746C1598.47 690.334 1598.1 690.857 1597.54 691.314C1596.99 691.771 1596.3 692 1595.48 692H1588.13L1616.21 621.783H1625.81L1653.89 692Z" fill="#00FFE0"/>
</g>
<g style="mix-blend-mode:normal">
<path d="M1533.63 684.013V692H1493.8V621.783H1503.25V684.013H1533.63Z" fill="#00FFE0"/>
</g>
<g style="mix-blend-mode:normal">
<path d="M1413.63 684.013V692H1373.8V621.783H1383.25V684.013H1413.63Z" fill="#00FFE0"/>
</g>
<g style="mix-blend-mode:normal">
<path d="M1285 684.258L1284.95 692H1241.69V621.783H1284.95V629.525H1251.19V652.849H1278.53V660.297H1251.19V684.258H1285Z" fill="#00FFE0"/>
</g>
<g style="mix-blend-mode:normal">
<path d="M1634.09 550.932L1623.07 522.365C1622.74 521.516 1622.4 520.536 1622.04 519.425C1621.68 518.282 1621.34 517.073 1621.01 515.799C1620.33 518.445 1619.62 520.65 1618.9 522.414L1607.88 550.932H1634.09ZM1653.89 577H1646.54C1645.69 577 1645.01 576.788 1644.48 576.363C1643.96 575.938 1643.57 575.399 1643.31 574.746L1636.74 557.792H1605.23L1598.67 574.746C1598.47 575.334 1598.1 575.857 1597.54 576.314C1596.99 576.771 1596.3 577 1595.48 577H1588.13L1616.21 506.783H1625.81L1653.89 577Z" fill="#00FFE0"/>
</g>
<g style="mix-blend-mode:normal">
<path d="M1537.52 506.783V577H1529.19V525.403C1529.19 524.717 1529.21 523.982 1529.24 523.198C1529.3 522.414 1529.37 521.614 1529.43 520.797L1505.33 564.701C1504.57 566.171 1503.43 566.906 1501.9 566.906H1500.52C1498.99 566.906 1497.85 566.171 1497.09 564.701L1472.5 520.601C1472.69 522.332 1472.79 523.933 1472.79 525.403V577H1464.46V506.783H1471.47C1472.32 506.783 1472.97 506.865 1473.43 507.028C1473.88 507.191 1474.33 507.649 1474.75 508.4L1499.01 551.618C1499.4 552.402 1499.77 553.219 1500.13 554.068C1500.52 554.917 1500.88 555.783 1501.21 556.665C1501.54 555.783 1501.88 554.917 1502.24 554.068C1502.6 553.186 1502.99 552.353 1503.42 551.569L1527.23 508.4C1527.62 507.649 1528.05 507.191 1528.5 507.028C1528.99 506.865 1529.66 506.783 1530.51 506.783H1537.52Z" fill="#00FFE0"/>
</g>
<g style="mix-blend-mode:normal">
<path d="M1409.44 506.783V577H1404.68C1403.93 577 1403.29 576.869 1402.77 576.608C1402.28 576.347 1401.79 575.906 1401.3 575.285L1360.68 522.365C1360.75 523.182 1360.8 523.982 1360.83 524.766C1360.86 525.55 1360.88 526.285 1360.88 526.971V577H1352.55V506.783H1357.45C1357.87 506.783 1358.23 506.816 1358.53 506.881C1358.82 506.914 1359.08 506.995 1359.31 507.126C1359.54 507.224 1359.77 507.387 1360 507.616C1360.22 507.812 1360.47 508.073 1360.73 508.4L1401.35 561.271C1401.29 560.422 1401.22 559.605 1401.16 558.821C1401.12 558.004 1401.11 557.237 1401.11 556.518V506.783H1409.44Z" fill="#00FFE0"/>
</g>
<g style="mix-blend-mode:normal">
<path d="M1267.09 550.932L1256.07 522.365C1255.74 521.516 1255.4 520.536 1255.04 519.425C1254.68 518.282 1254.34 517.073 1254.01 515.799C1253.33 518.445 1252.62 520.65 1251.9 522.414L1240.88 550.932H1267.09ZM1286.89 577H1279.54C1278.69 577 1278.01 576.788 1277.48 576.363C1276.96 575.938 1276.57 575.399 1276.31 574.746L1269.74 557.792H1238.23L1231.67 574.746C1231.47 575.334 1231.1 575.857 1230.54 576.314C1229.99 576.771 1229.3 577 1228.48 577H1221.13L1249.21 506.783H1258.81L1286.89 577Z" fill="#00FFE0"/>
</g>
<g style="mix-blend-mode:normal">
<path d="M1141.03 569.454C1143.94 569.454 1146.54 568.964 1148.82 567.984C1151.11 567.004 1153.04 565.632 1154.6 563.868C1156.21 562.104 1157.41 559.997 1158.23 557.547C1159.08 555.097 1159.5 552.402 1159.5 549.462V506.783H1168.96V549.462C1168.96 553.513 1168.31 557.269 1167 560.732C1165.73 564.195 1163.88 567.2 1161.46 569.748C1159.08 572.263 1156.16 574.24 1152.69 575.677C1149.23 577.114 1145.34 577.833 1141.03 577.833C1136.72 577.833 1132.83 577.114 1129.37 575.677C1125.91 574.24 1122.97 572.263 1120.55 569.748C1118.13 567.2 1116.27 564.195 1114.96 560.732C1113.69 557.269 1113.05 553.513 1113.05 549.462V506.783H1122.51V549.413C1122.51 552.353 1122.92 555.048 1123.73 557.498C1124.58 559.948 1125.79 562.055 1127.36 563.819C1128.96 565.583 1130.91 566.971 1133.19 567.984C1135.51 568.964 1138.12 569.454 1141.03 569.454Z" fill="#00FFE0"/>
</g>
<g style="mix-blend-mode:normal">
<path d="M1033.45 552.745C1033.45 556.665 1032.96 560.177 1031.98 563.28C1031.04 566.383 1029.61 569.013 1027.72 571.169C1025.86 573.292 1023.56 574.926 1020.81 576.069C1018.07 577.212 1014.91 577.784 1011.35 577.784C1008.12 577.784 1004.82 577.327 1001.46 576.412C1001.52 575.465 1001.6 574.534 1001.7 573.619C1001.8 572.672 1001.88 571.741 1001.95 570.826C1002.01 570.271 1002.21 569.83 1002.53 569.503C1002.89 569.144 1003.43 568.964 1004.15 568.964C1004.74 568.964 1005.51 569.111 1006.45 569.405C1007.43 569.699 1008.74 569.846 1010.37 569.846C1012.53 569.846 1014.46 569.519 1016.16 568.866C1017.85 568.213 1019.28 567.2 1020.42 565.828C1021.56 564.456 1022.43 562.708 1023.02 560.585C1023.64 558.429 1023.95 555.881 1023.95 552.941V506.783H1033.45V552.745Z" fill="#00FFE0"/>
</g>
<g style="mix-blend-mode:normal">
<path d="M1039.28 632.759C1038.98 633.249 1038.66 633.625 1038.3 633.886C1037.97 634.115 1037.56 634.229 1037.07 634.229C1036.52 634.229 1035.86 633.951 1035.11 633.396C1034.36 632.841 1033.41 632.236 1032.27 631.583C1031.16 630.897 1029.81 630.276 1028.2 629.721C1026.64 629.166 1024.73 628.888 1022.47 628.888C1020.35 628.888 1018.47 629.182 1016.84 629.77C1015.24 630.325 1013.88 631.093 1012.77 632.073C1011.69 633.053 1010.87 634.213 1010.32 635.552C1009.76 636.859 1009.49 638.28 1009.49 639.815C1009.49 641.775 1009.96 643.408 1010.91 644.715C1011.89 645.989 1013.16 647.083 1014.73 647.998C1016.33 648.913 1018.13 649.713 1020.12 650.399C1022.14 651.052 1024.2 651.738 1026.29 652.457C1028.42 653.176 1030.47 653.992 1032.47 654.907C1034.49 655.789 1036.29 656.916 1037.86 658.288C1039.46 659.66 1040.73 661.342 1041.68 663.335C1042.66 665.328 1043.15 667.778 1043.15 670.685C1043.15 673.756 1042.63 676.647 1041.58 679.358C1040.54 682.037 1039 684.372 1036.98 686.365C1034.98 688.358 1032.52 689.926 1029.58 691.069C1026.67 692.212 1023.35 692.784 1019.63 692.784C1015.06 692.784 1010.91 691.967 1007.18 690.334C1003.46 688.668 1000.27 686.43 997.629 683.621L1000.37 679.113C1000.63 678.754 1000.94 678.46 1001.3 678.231C1001.7 677.97 1002.12 677.839 1002.58 677.839C1003 677.839 1003.48 678.019 1004 678.378C1004.55 678.705 1005.17 679.129 1005.86 679.652C1006.55 680.175 1007.33 680.746 1008.21 681.367C1009.09 681.988 1010.09 682.559 1011.2 683.082C1012.34 683.605 1013.64 684.046 1015.07 684.405C1016.51 684.732 1018.13 684.895 1019.92 684.895C1022.18 684.895 1024.19 684.585 1025.95 683.964C1027.71 683.343 1029.2 682.478 1030.41 681.367C1031.65 680.224 1032.6 678.868 1033.25 677.3C1033.9 675.732 1034.23 673.984 1034.23 672.057C1034.23 669.934 1033.74 668.202 1032.76 666.863C1031.81 665.491 1030.56 664.348 1028.99 663.433C1027.42 662.518 1025.62 661.751 1023.6 661.13C1021.57 660.477 1019.52 659.823 1017.42 659.17C1015.33 658.484 1013.28 657.7 1011.25 656.818C1009.23 655.936 1007.43 654.793 1005.86 653.388C1004.29 651.983 1003.02 650.236 1002.04 648.145C1001.09 646.022 1000.62 643.408 1000.62 640.305C1000.62 637.822 1001.09 635.421 1002.04 633.102C1003.02 630.783 1004.42 628.725 1006.25 626.928C1008.11 625.131 1010.38 623.694 1013.06 622.616C1015.77 621.538 1018.88 620.999 1022.37 620.999C1026.29 620.999 1029.85 621.62 1033.06 622.861C1036.29 624.102 1039.13 625.899 1041.58 628.251L1039.28 632.759Z" fill="#00FFE0"/>
</g>
<g style="mix-blend-mode:normal">
<path d="M1168.5 629.77H1145.76V692H1136.3V629.77H1113.52V621.783H1168.5V629.77Z" fill="#00FFE0"/>
</g> -->
</svg>
