<svg width="1730" height="516" viewBox="0 0 1730 516" fill="none" xmlns="http://www.w3.org/2000/svg">
<g style="mix-blend-mode:normal">
<path d="M1669.09 433.2L1635.34 345.75C1634.34 343.15 1633.29 340.15 1632.19 336.75C1631.09 333.25 1630.04 329.55 1629.04 325.65C1626.94 333.75 1624.79 340.5 1622.59 345.9L1588.84 433.2H1669.09ZM1729.69 513H1707.19C1704.59 513 1702.49 512.35 1700.89 511.05C1699.29 509.75 1698.09 508.1 1697.29 506.1L1677.19 454.2H1580.74L1560.64 506.1C1560.04 507.9 1558.89 509.5 1557.19 510.9C1555.49 512.3 1553.39 513 1550.89 513H1528.39L1614.34 298.05H1643.74L1729.69 513Z"/>
</g>
<g style="mix-blend-mode:normal">
<path d="M1413.35 488.55V513H1291.4V298.05H1320.35V488.55H1413.35Z"/>
</g>
<g style="mix-blend-mode:normal">
<path d="M1101.85 488.55V513H979.899V298.05H1008.85V488.55H1101.85Z"/>
</g>
<g style="mix-blend-mode:normal">
<path d="M768.478 489.3L768.328 513H635.878V298.05H768.328V321.75H664.978V393.15H748.678V415.95H664.978V489.3H768.478Z"/>
</g>
<g style="mix-blend-mode:normal">
<path d="M1669.09 135.2L1635.34 47.75C1634.34 45.15 1633.29 42.15 1632.19 38.75C1631.09 35.25 1630.04 31.55 1629.04 27.65C1626.94 35.75 1624.79 42.5 1622.59 47.9L1588.84 135.2H1669.09ZM1729.69 215H1707.19C1704.59 215 1702.49 214.35 1700.89 213.05C1699.29 211.75 1698.09 210.1 1697.29 208.1L1677.19 156.2H1580.74L1560.64 208.1C1560.04 209.9 1558.89 211.5 1557.19 212.9C1555.49 214.3 1553.39 215 1550.89 215H1528.39L1614.34 0.0499868H1643.74L1729.69 215Z"/>
</g>
<g style="mix-blend-mode:normal">
<path d="M1429.29 0.0499868V215H1403.79V57.05C1403.79 54.95 1403.84 52.7 1403.94 50.3C1404.14 47.9 1404.34 45.45 1404.54 42.95L1330.74 177.35C1328.44 181.85 1324.94 184.1 1320.24 184.1H1316.04C1311.34 184.1 1307.84 181.85 1305.54 177.35L1230.24 42.35C1230.84 47.65 1231.14 52.55 1231.14 57.05V215H1205.64V0.0499868H1227.09C1229.69 0.0499868 1231.69 0.299987 1233.09 0.799986C1234.49 1.29999 1235.84 2.69999 1237.14 4.99999L1311.39 137.3C1312.59 139.7 1313.74 142.2 1314.84 144.8C1316.04 147.4 1317.14 150.05 1318.14 152.75C1319.14 150.05 1320.19 147.4 1321.29 144.8C1322.39 142.1 1323.59 139.55 1324.89 137.15L1397.79 4.99999C1398.99 2.69999 1400.29 1.29999 1401.69 0.799986C1403.19 0.299987 1405.24 0.0499868 1407.84 0.0499868H1429.29Z"/>
</g>
<g style="mix-blend-mode:normal">
<path d="M1093.55 0.0499868V215H1079C1076.7 215 1074.75 214.6 1073.15 213.8C1071.65 213 1070.15 211.65 1068.65 209.75L944.299 47.75C944.499 50.25 944.649 52.7 944.749 55.1C944.849 57.5 944.899 59.75 944.899 61.85V215H919.399V0.0499868H934.399C935.699 0.0499868 936.799 0.149986 937.699 0.349983C938.599 0.449988 939.399 0.699987 940.099 1.09998C940.799 1.39998 941.499 1.89999 942.199 2.6C942.899 3.19999 943.649 3.99999 944.449 4.99999L1068.8 166.85C1068.6 164.25 1068.4 161.75 1068.2 159.35C1068.1 156.85 1068.05 154.5 1068.05 152.3V0.0499868H1093.55Z"/>
</g>
<g style="mix-blend-mode:normal">
<path d="M716.586 135.2L682.836 47.75C681.836 45.15 680.786 42.15 679.686 38.75C678.586 35.25 677.536 31.55 676.536 27.65C674.436 35.75 672.286 42.5 670.086 47.9L636.336 135.2H716.586ZM777.186 215H754.686C752.086 215 749.986 214.35 748.386 213.05C746.786 211.75 745.586 210.1 744.786 208.1L724.686 156.2H628.236L608.136 208.1C607.536 209.9 606.386 211.5 604.686 212.9C602.986 214.3 600.886 215 598.386 215H575.886L661.836 0.0499868H691.236L777.186 215Z"/>
</g>
<g style="mix-blend-mode:normal">
<path d="M383.597 191.9C392.497 191.9 400.447 190.4 407.447 187.4C414.447 184.4 420.347 180.2 425.147 174.8C430.047 169.4 433.747 162.95 436.247 155.45C438.847 147.95 440.147 139.7 440.147 130.7V0.0499868H469.097V130.7C469.097 143.1 467.097 154.6 463.097 165.2C459.197 175.8 453.547 185 446.147 192.8C438.847 200.5 429.897 206.55 419.297 210.95C408.697 215.35 396.797 217.55 383.597 217.55C370.397 217.55 358.497 215.35 347.897 210.95C337.297 206.55 328.297 200.5 320.897 192.8C313.497 185 307.797 175.8 303.797 165.2C299.897 154.6 297.947 143.1 297.947 130.7V0.0499868H326.897V130.55C326.897 139.55 328.147 147.8 330.647 155.3C333.247 162.8 336.947 169.25 341.747 174.65C346.647 180.05 352.597 184.3 359.597 187.4C366.697 190.4 374.697 191.9 383.597 191.9Z"/>
</g>
<g style="mix-blend-mode:normal">
<path d="M110.622 140.75C110.622 152.75 109.122 163.5 106.122 173C103.222 182.5 98.8723 190.55 93.0723 197.15C87.3723 203.65 80.3223 208.65 71.9223 212.15C63.5223 215.65 53.8723 217.4 42.9723 217.4C33.0723 217.4 22.9723 216 12.6723 213.2C12.8723 210.3 13.1223 207.45 13.4223 204.65C13.7223 201.75 13.9723 198.9 14.1723 196.1C14.3723 194.4 14.9723 193.05 15.9723 192.05C17.0723 190.95 18.7223 190.4 20.9223 190.4C22.7223 190.4 25.0723 190.85 27.9723 191.75C30.9723 192.65 34.9723 193.1 39.9723 193.1C46.5723 193.1 52.4723 192.1 57.6723 190.1C62.8723 188.1 67.2223 185 70.7223 180.8C74.2223 176.6 76.8723 171.25 78.6723 164.75C80.5723 158.15 81.5223 150.35 81.5223 141.35V0.0499868H110.622V140.75Z"/>
</g>
<g style="mix-blend-mode:normal">
<path d="M128.455 331.65C127.555 333.15 126.555 334.3 125.455 335.1C124.455 335.8 123.205 336.15 121.705 336.15C120.005 336.15 118.005 335.3 115.705 333.6C113.405 331.9 110.505 330.05 107.005 328.05C103.605 325.95 99.4547 324.05 94.5547 322.35C89.7547 320.65 83.9047 319.8 77.0047 319.8C70.5047 319.8 64.7547 320.7 59.7547 322.5C54.8547 324.2 50.7047 326.55 47.3047 329.55C44.0047 332.55 41.5047 336.1 39.8047 340.2C38.1047 344.2 37.2547 348.55 37.2547 353.25C37.2547 359.25 38.7047 364.25 41.6047 368.25C44.6047 372.15 48.5047 375.5 53.3047 378.3C58.2047 381.1 63.7047 383.55 69.8047 385.65C76.0047 387.65 82.3047 389.75 88.7047 391.95C95.2047 394.15 101.505 396.65 107.605 399.45C113.805 402.15 119.305 405.6 124.105 409.8C129.005 414 132.905 419.15 135.805 425.25C138.805 431.35 140.305 438.85 140.305 447.75C140.305 457.15 138.705 466 135.505 474.3C132.305 482.5 127.605 489.65 121.405 495.75C115.305 501.85 107.755 506.65 98.7547 510.15C89.8547 513.65 79.7047 515.4 68.3047 515.4C54.3047 515.4 41.6047 512.9 30.2047 507.9C18.8047 502.8 9.05469 495.95 0.954687 487.35L9.35469 473.55C10.1547 472.45 11.1047 471.55 12.2047 470.85C13.4047 470.05 14.7047 469.65 16.1047 469.65C17.4047 469.65 18.8547 470.2 20.4547 471.3C22.1547 472.3 24.0547 473.6 26.1547 475.2C28.2547 476.8 30.6547 478.55 33.3547 480.45C36.0547 482.35 39.1047 484.1 42.5047 485.7C46.0047 487.3 49.9547 488.65 54.3547 489.75C58.7547 490.75 63.7047 491.25 69.2047 491.25C76.1047 491.25 82.2547 490.3 87.6547 488.4C93.0547 486.5 97.6047 483.85 101.305 480.45C105.105 476.95 108.005 472.8 110.005 468C112.005 463.2 113.005 457.85 113.005 451.95C113.005 445.45 111.505 440.15 108.505 436.05C105.605 431.85 101.755 428.35 96.9547 425.55C92.1547 422.75 86.6547 420.4 80.4547 418.5C74.2547 416.5 67.9547 414.5 61.5547 412.5C55.1547 410.4 48.8547 408 42.6547 405.3C36.4547 402.6 30.9547 399.1 26.1547 394.8C21.3547 390.5 17.4547 385.15 14.4547 378.75C11.5547 372.25 10.1047 364.25 10.1047 354.75C10.1047 347.15 11.5547 339.8 14.4547 332.7C17.4547 325.6 21.7547 319.3 27.3547 313.8C33.0547 308.3 40.0047 303.9 48.2047 300.6C56.5047 297.3 66.0047 295.65 76.7047 295.65C88.7047 295.65 99.6047 297.55 109.405 301.35C119.305 305.15 128.005 310.65 135.505 317.85L128.455 331.65Z"/>
</g>
<g style="mix-blend-mode:normal">
<path d="M467.677 322.5H398.077V513H369.127V322.5H299.377V298.05H467.677V322.5Z"/>
</g>
</svg>
