<svg width="417" height="48" viewBox="0 0 417 48" fill="none" xmlns="http://www.w3.org/2000/svg">
<path d="M3.52 38V22.112H0.112V18.128H3.52V9.728C3.52 6.848 4.16 4.64 5.44 3.104C6.752 1.568 8.672 0.799998 11.2 0.799998C11.872 0.799998 12.608 0.895998 13.408 1.088C14.24 1.28 14.96 1.6 15.568 2.048L13.696 5.264C13.408 4.976 13.088 4.784 12.736 4.688C12.384 4.56 12.032 4.496 11.68 4.496C10.496 4.496 9.584 4.896 8.944 5.696C8.304 6.496 7.984 7.856 7.984 9.776V18.128H14.272V22.112H7.984V38H3.52ZM26.3635 38.768C24.5715 38.768 23.0835 38.224 21.8995 37.136C20.7475 36.016 20.1395 34.576 20.0755 32.816V18.128H24.5395V31.232C24.6035 32.32 24.9075 33.2 25.4515 33.872C26.0275 34.544 26.9235 34.896 28.1395 34.928C29.2595 34.928 30.2515 34.608 31.1155 33.968C32.0115 33.296 32.7315 32.4 33.2755 31.28C33.8195 30.128 34.0915 28.832 34.0915 27.392V18.128H38.5555V38H34.4755L34.0915 33.104L34.3315 33.968C33.9475 34.896 33.3555 35.728 32.5555 36.464C31.7875 37.168 30.8755 37.728 29.8195 38.144C28.7635 38.56 27.6115 38.768 26.3635 38.768ZM46.2786 0.847998H50.7426V38H46.2786V0.847998ZM58.4661 0.847998H62.9301V38H58.4661V0.847998ZM91.4091 38.384C90.0011 38.384 88.6251 38.144 87.2811 37.664C85.9691 37.152 84.8811 36.4 84.0171 35.408L85.8891 32.816C86.7211 33.616 87.5691 34.224 88.4331 34.64C89.3291 35.024 90.2091 35.216 91.0731 35.216C91.7131 35.216 92.3051 35.136 92.8491 34.976C93.3931 34.816 93.8251 34.56 94.1451 34.208C94.4971 33.824 94.6731 33.312 94.6731 32.672C94.6731 31.968 94.4331 31.408 93.9531 30.992C93.5051 30.576 92.9131 30.24 92.1771 29.984C91.4731 29.728 90.7211 29.488 89.9211 29.264C88.2891 28.72 87.0411 27.968 86.1771 27.008C85.3131 26.048 84.8811 24.88 84.8811 23.504C84.8811 22.448 85.1371 21.472 85.6491 20.576C86.1931 19.648 86.9771 18.896 88.0011 18.32C89.0571 17.744 90.3531 17.456 91.8891 17.456C93.2651 17.456 94.4971 17.632 95.5851 17.984C96.6731 18.304 97.6971 18.848 98.6571 19.616L96.8811 22.4C96.3051 21.792 95.6171 21.344 94.8171 21.056C94.0171 20.768 93.2971 20.608 92.6571 20.576C92.1131 20.544 91.5851 20.624 91.0731 20.816C90.5931 21.008 90.1931 21.28 89.8731 21.632C89.5531 21.984 89.3931 22.4 89.3931 22.88C89.3931 23.552 89.6171 24.096 90.0651 24.512C90.5131 24.928 91.0891 25.264 91.7931 25.52C92.5291 25.744 93.2491 25.984 93.9531 26.24C94.9451 26.528 95.8251 26.912 96.5931 27.392C97.3611 27.872 97.9691 28.464 98.4171 29.168C98.8971 29.872 99.1371 30.752 99.1371 31.808C99.1371 32.992 98.8491 34.096 98.2731 35.12C97.7291 36.112 96.8811 36.912 95.7291 37.52C94.6091 38.096 93.1691 38.384 91.4091 38.384ZM107.308 9.392H111.772V18.224H117.244V21.728H111.772V38H107.308V21.728H103.66V18.224H107.308V9.392ZM130.894 38.48C129.038 38.48 127.342 38.08 125.806 37.28C124.302 36.48 123.102 35.312 122.206 33.776C121.342 32.208 120.91 30.304 120.91 28.064C120.91 25.856 121.374 23.952 122.302 22.352C123.23 20.72 124.462 19.472 125.998 18.608C127.566 17.744 129.278 17.312 131.134 17.312C132.99 17.312 134.558 17.744 135.838 18.608C137.118 19.44 138.094 20.432 138.766 21.584L138.478 22.352L138.91 18.128H143.038V38H138.574V32.816L139.054 33.968C138.926 34.288 138.638 34.704 138.19 35.216C137.774 35.696 137.198 36.192 136.462 36.704C135.758 37.216 134.942 37.648 134.014 38C133.086 38.32 132.046 38.48 130.894 38.48ZM132.094 34.784C133.214 34.784 134.222 34.576 135.118 34.16C136.014 33.744 136.75 33.168 137.326 32.432C137.934 31.664 138.35 30.752 138.574 29.696V25.808C138.318 24.848 137.87 24.016 137.23 23.312C136.59 22.576 135.822 22.016 134.926 21.632C134.03 21.216 133.038 21.008 131.95 21.008C130.766 21.008 129.678 21.296 128.686 21.872C127.694 22.448 126.894 23.248 126.286 24.272C125.71 25.296 125.422 26.496 125.422 27.872C125.422 29.152 125.726 30.32 126.334 31.376C126.942 32.432 127.758 33.264 128.782 33.872C129.806 34.48 130.91 34.784 132.094 34.784ZM166.891 36.176C165.995 36.88 164.923 37.44 163.675 37.856C162.427 38.272 161.179 38.48 159.931 38.48C157.755 38.48 155.851 38.048 154.219 37.184C152.587 36.32 151.307 35.12 150.379 33.584C149.483 32.016 149.035 30.176 149.035 28.064C149.035 25.952 149.515 24.112 150.475 22.544C151.467 20.976 152.747 19.776 154.315 18.944C155.915 18.08 157.627 17.648 159.451 17.648C161.051 17.648 162.475 17.872 163.723 18.32C165.003 18.768 166.091 19.376 166.987 20.144L164.779 23.024C164.203 22.576 163.499 22.176 162.667 21.824C161.835 21.472 160.891 21.296 159.835 21.296C158.683 21.296 157.611 21.6 156.619 22.208C155.659 22.784 154.891 23.584 154.315 24.608C153.771 25.632 153.499 26.784 153.499 28.064C153.499 29.28 153.787 30.416 154.363 31.472C154.939 32.496 155.739 33.312 156.763 33.92C157.787 34.496 158.955 34.784 160.267 34.784C161.131 34.784 161.915 34.656 162.619 34.4C163.355 34.144 164.011 33.792 164.587 33.344L166.891 36.176ZM172.654 38V0.847998H177.118V38H172.654ZM181.918 24.8L191.038 38H185.806L178.942 27.296L181.918 24.8ZM175.726 31.664L175.294 27.392L187.342 17.696L190.078 20.048L175.726 31.664ZM219.811 38.48C217.987 38.48 216.323 38.048 214.819 37.184C213.347 36.288 212.179 35.04 211.315 33.44C210.451 31.808 210.019 29.936 210.019 27.824C210.019 25.616 210.467 23.728 211.363 22.16C212.291 20.592 213.539 19.392 215.107 18.56C216.675 17.728 218.435 17.312 220.387 17.312C221.955 17.312 223.443 17.648 224.851 18.32C226.291 18.992 227.411 19.92 228.211 21.104L228.019 22.688V0.847998H232.435V38H227.971V33.056L228.451 34.304C227.523 35.52 226.323 36.528 224.851 37.328C223.379 38.096 221.699 38.48 219.811 38.48ZM221.203 34.688C222.387 34.688 223.443 34.48 224.371 34.064C225.299 33.616 226.067 33.008 226.675 32.24C227.283 31.472 227.715 30.56 227.971 29.504V25.76C227.715 24.8 227.251 23.968 226.579 23.264C225.939 22.528 225.155 21.952 224.227 21.536C223.331 21.088 222.323 20.864 221.203 20.864C219.987 20.864 218.867 21.168 217.843 21.776C216.851 22.352 216.051 23.152 215.443 24.176C214.835 25.2 214.531 26.384 214.531 27.728C214.531 29.04 214.835 30.224 215.443 31.28C216.051 32.304 216.867 33.136 217.891 33.776C218.915 34.384 220.019 34.688 221.203 34.688ZM249.417 38.48C247.145 38.48 245.193 38.032 243.561 37.136C241.929 36.208 240.665 34.96 239.769 33.392C238.905 31.792 238.473 29.968 238.473 27.92C238.473 25.968 238.969 24.192 239.961 22.592C240.953 20.992 242.281 19.712 243.945 18.752C245.609 17.792 247.465 17.312 249.513 17.312C252.137 17.312 254.313 18.08 256.041 19.616C257.769 21.152 258.937 23.264 259.545 25.952L243.177 31.712L242.121 29.072L255.561 24.176L254.601 24.8C254.217 23.744 253.577 22.832 252.681 22.064C251.785 21.264 250.617 20.864 249.177 20.864C247.961 20.864 246.873 21.168 245.913 21.776C244.953 22.352 244.201 23.152 243.657 24.176C243.113 25.2 242.841 26.368 242.841 27.68C242.841 29.056 243.129 30.272 243.705 31.328C244.281 32.352 245.065 33.168 246.057 33.776C247.081 34.352 248.233 34.64 249.513 34.64C250.377 34.64 251.209 34.48 252.009 34.16C252.841 33.84 253.609 33.424 254.313 32.912L256.377 36.224C255.385 36.896 254.265 37.44 253.017 37.856C251.801 38.272 250.601 38.48 249.417 38.48ZM272.499 38.576L261.459 18.128H266.739L274.227 33.92L271.491 33.824L278.355 18.128H283.347L272.739 38.576H272.499ZM296.901 38.48C294.629 38.48 292.677 38.032 291.045 37.136C289.413 36.208 288.149 34.96 287.253 33.392C286.389 31.792 285.957 29.968 285.957 27.92C285.957 25.968 286.453 24.192 287.445 22.592C288.437 20.992 289.765 19.712 291.429 18.752C293.093 17.792 294.949 17.312 296.997 17.312C299.621 17.312 301.797 18.08 303.525 19.616C305.253 21.152 306.421 23.264 307.029 25.952L290.661 31.712L289.605 29.072L303.045 24.176L302.085 24.8C301.701 23.744 301.061 22.832 300.165 22.064C299.269 21.264 298.101 20.864 296.661 20.864C295.445 20.864 294.357 21.168 293.397 21.776C292.437 22.352 291.685 23.152 291.141 24.176C290.597 25.2 290.325 26.368 290.325 27.68C290.325 29.056 290.613 30.272 291.189 31.328C291.765 32.352 292.549 33.168 293.541 33.776C294.565 34.352 295.717 34.64 296.997 34.64C297.861 34.64 298.693 34.48 299.493 34.16C300.325 33.84 301.093 33.424 301.797 32.912L303.861 36.224C302.869 36.896 301.749 37.44 300.501 37.856C299.285 38.272 298.085 38.48 296.901 38.48ZM312.622 0.847998H317.086V38H312.622V0.847998ZM323.082 27.872C323.082 25.888 323.546 24.096 324.474 22.496C325.434 20.896 326.746 19.632 328.41 18.704C330.074 17.776 331.962 17.312 334.074 17.312C336.25 17.312 338.154 17.776 339.786 18.704C341.418 19.632 342.682 20.896 343.578 22.496C344.474 24.096 344.922 25.888 344.922 27.872C344.922 29.856 344.474 31.664 343.578 33.296C342.682 34.896 341.402 36.16 339.738 37.088C338.106 38.016 336.202 38.48 334.026 38.48C331.914 38.48 330.026 38.048 328.362 37.184C326.73 36.288 325.434 35.056 324.474 33.488C323.546 31.888 323.082 30.016 323.082 27.872ZM327.546 27.92C327.546 29.2 327.834 30.368 328.41 31.424C328.986 32.448 329.754 33.264 330.714 33.872C331.706 34.48 332.794 34.784 333.978 34.784C335.226 34.784 336.33 34.48 337.29 33.872C338.282 33.264 339.05 32.448 339.594 31.424C340.138 30.368 340.41 29.2 340.41 27.92C340.41 26.64 340.138 25.488 339.594 24.464C339.05 23.408 338.282 22.576 337.29 21.968C336.33 21.328 335.226 21.008 333.978 21.008C332.762 21.008 331.658 21.328 330.666 21.968C329.706 22.608 328.938 23.456 328.362 24.512C327.818 25.536 327.546 26.672 327.546 27.92ZM362.678 38.48C361.174 38.48 359.718 38.128 358.31 37.424C356.934 36.72 355.862 35.776 355.094 34.592L355.382 33.2V47.552H350.966V17.84H354.806L355.43 22.928L354.95 21.536C355.91 20.32 357.126 19.312 358.598 18.512C360.07 17.712 361.718 17.312 363.542 17.312C365.398 17.312 367.062 17.76 368.534 18.656C370.038 19.552 371.222 20.8 372.086 22.4C372.95 24 373.382 25.872 373.382 28.016C373.382 30.16 372.918 32.016 371.99 33.584C371.062 35.152 369.782 36.368 368.15 37.232C366.55 38.064 364.726 38.48 362.678 38.48ZM361.814 34.928C363.094 34.928 364.262 34.64 365.318 34.064C366.406 33.456 367.27 32.64 367.91 31.616C368.55 30.56 368.87 29.376 368.87 28.064C368.87 26.72 368.566 25.536 367.958 24.512C367.35 23.456 366.534 22.624 365.51 22.016C364.518 21.408 363.398 21.104 362.15 21.104C360.998 21.104 359.958 21.328 359.03 21.776C358.102 22.224 357.334 22.848 356.726 23.648C356.118 24.416 355.686 25.312 355.43 26.336V29.648C355.59 30.672 355.974 31.584 356.582 32.384C357.19 33.184 357.942 33.808 358.838 34.256C359.766 34.704 360.758 34.928 361.814 34.928ZM388.635 38.48C386.363 38.48 384.411 38.032 382.779 37.136C381.147 36.208 379.883 34.96 378.987 33.392C378.123 31.792 377.691 29.968 377.691 27.92C377.691 25.968 378.187 24.192 379.179 22.592C380.171 20.992 381.499 19.712 383.163 18.752C384.827 17.792 386.683 17.312 388.731 17.312C391.355 17.312 393.531 18.08 395.259 19.616C396.987 21.152 398.155 23.264 398.763 25.952L382.395 31.712L381.339 29.072L394.779 24.176L393.819 24.8C393.435 23.744 392.795 22.832 391.899 22.064C391.003 21.264 389.835 20.864 388.395 20.864C387.179 20.864 386.091 21.168 385.131 21.776C384.171 22.352 383.419 23.152 382.875 24.176C382.331 25.2 382.059 26.368 382.059 27.68C382.059 29.056 382.347 30.272 382.923 31.328C383.499 32.352 384.283 33.168 385.275 33.776C386.299 34.352 387.451 34.64 388.731 34.64C389.595 34.64 390.427 34.48 391.227 34.16C392.059 33.84 392.827 33.424 393.531 32.912L395.595 36.224C394.603 36.896 393.483 37.44 392.235 37.856C391.019 38.272 389.819 38.48 388.635 38.48ZM408.341 18.128L408.773 23.888L408.533 23.12C409.045 21.904 409.781 20.88 410.741 20.048C411.733 19.184 412.757 18.528 413.813 18.08C414.901 17.6 415.845 17.36 416.645 17.36L416.405 21.776C414.901 21.68 413.573 21.968 412.421 22.64C411.301 23.312 410.405 24.208 409.733 25.328C409.093 26.448 408.773 27.648 408.773 28.928V38H404.357V18.128H408.341Z" fill="white"/>
</svg>
