<svg width="203" height="45" viewBox="0 0 203 45" xmlns="http://www.w3.org/2000/svg">
<path d="M12.528 30.712C12.528 33.528 11.984 35.928 10.896 37.912C9.84 39.896 8.384 41.4 6.528 42.424C4.672 43.48 2.544 44.056 0.144 44.152V39.64C2.384 39.512 4.224 38.712 5.664 37.24C7.136 35.8 7.872 33.576 7.872 30.568V2.296H12.528V30.712ZM26.6993 24.712C26.6993 26.28 27.0673 27.688 27.8033 28.936C28.5713 30.152 29.5793 31.112 30.8273 31.816C32.0753 32.52 33.4833 32.872 35.0513 32.872C36.6833 32.872 38.1393 32.52 39.4193 31.816C40.6993 31.112 41.7073 30.152 42.4433 28.936C43.1793 27.688 43.5473 26.28 43.5473 24.712V2.296H48.1073V24.856C48.1073 27.384 47.5153 29.592 46.3313 31.48C45.1793 33.368 43.6113 34.824 41.6273 35.848C39.6753 36.872 37.4833 37.384 35.0513 37.384C32.6193 37.384 30.4273 36.872 28.4753 35.848C26.5233 34.824 24.9713 33.368 23.8193 31.48C22.6673 29.592 22.0913 27.384 22.0913 24.856V2.296H26.6993V24.712ZM53.5673 37L68.7353 0.855999H69.0233L84.1433 37H78.8153L67.4873 8.152L70.7993 5.992L58.1273 37H53.5673ZM62.4473 23.848H75.3593L76.8953 27.88H61.1033L62.4473 23.848ZM120.728 38.104L93.8955 10.888L95.2395 11.224L95.3355 37H90.6795V1.24H90.9195L117.464 28.552L116.36 28.312L116.264 2.296H120.872V38.104H120.728ZM130.851 37V1.192H130.899L149.091 27.016L147.123 26.632L165.267 1.192H165.363V37H160.755V11.752L161.043 14.104L147.939 32.632H147.843L134.547 14.104L135.363 11.944V37H130.851ZM171.88 37L187.048 0.855999H187.336L202.456 37H197.128L185.8 8.152L189.112 5.992L176.44 37H171.88ZM180.76 23.848H193.672L195.208 27.88H179.416L180.76 23.848Z"/>
</svg>
