<svg width="170" height="39" viewBox="0 0 170 39" fill="none" xmlns="http://www.w3.org/2000/svg">
<path d="M6.28 25.8V0.399999H8.2V24.52C8.2 28.0933 7.45333 30.9467 5.96 33.08C5.21333 34.1733 4.45333 35.08 3.68 35.8C2.90667 36.5467 1.96 37.32 0.84 38.12L-1.49012e-08 36.88C4.18667 33.8133 6.28 30.12 6.28 25.8ZM38.0209 26.24C36.1809 28.4 33.3809 29.48 29.6209 29.48C25.8609 29.48 23.0476 28.3867 21.1809 26.2C19.3409 24.0133 18.4209 21.0267 18.4209 17.24V0.399999H20.3409V17.24C20.3409 24.28 23.4209 27.8 29.5809 27.8C35.7676 27.8 38.8609 24.28 38.8609 17.24V0.399999H40.7809V17.24C40.7809 21.0533 39.8609 24.0533 38.0209 26.24ZM51.4719 19.08L47.3519 29H45.3119L57.3519 0.199999H58.4719L70.5519 29H68.3919L64.2719 19.08H51.4719ZM57.7919 3.4C57.7652 3.42666 57.7119 3.58666 57.6319 3.88C57.2585 5.02667 56.8985 6 56.5519 6.8L52.1519 17.44H63.5919L59.1919 6.84C58.2585 4.81333 57.7919 3.66666 57.7919 3.4ZM78.3153 4.96L78.3953 8.36V29H76.4753V0.159999H77.3553L96.1953 21.88C97.4753 23.4 98.462 24.6133 99.1553 25.52C99.0486 24.24 98.9953 22.7733 98.9953 21.12V0.399999H100.915V29.24H100.035L80.8353 7.12C79.502 5.6 78.6486 4.58667 78.2753 4.08L78.3153 4.96ZM124.995 27.52H123.915L115.555 7.28C115.075 6.16 114.689 5.17333 114.395 4.32L113.995 7.36L110.715 29H108.755L113.475 0.159999H114.595L123.515 21.36C123.969 22.3467 124.329 23.28 124.595 24.16C124.675 23.8667 125.089 22.9467 125.835 21.4L135.795 0.159999H136.875L141.235 29H139.235L136.115 7.28C135.902 5.92 135.795 4.89333 135.795 4.2C135.769 4.22667 135.702 4.36 135.595 4.6C135.515 4.81333 135.355 5.18666 135.115 5.72C134.902 6.22667 134.675 6.76 134.435 7.32L124.995 27.52ZM150.613 19.08L146.493 29H144.453L156.493 0.199999H157.613L169.693 29H167.533L163.413 19.08H150.613ZM156.933 3.4C156.906 3.42666 156.853 3.58666 156.773 3.88C156.399 5.02667 156.039 6 155.693 6.8L151.293 17.44H162.733L158.333 6.84C157.399 4.81333 156.933 3.66666 156.933 3.4Z" fill="black"/>
</svg>
