<svg width="241" height="40" viewBox="0 0 241 40" fill="none" xmlns="http://www.w3.org/2000/svg">
<path d="M4.872 10.128L5.256 14.592L5.064 14.208C5.8 12.704 6.84 11.52 8.184 10.656C9.56 9.792 11.128 9.36 12.888 9.36C14.008 9.36 15 9.536 15.864 9.888C16.728 10.24 17.432 10.752 17.976 11.424C18.552 12.064 18.92 12.864 19.08 13.824L18.84 13.968C19.608 12.528 20.664 11.408 22.008 10.608C23.384 9.776 24.824 9.36 26.328 9.36C28.28 9.36 29.816 9.92 30.936 11.04C32.088 12.128 32.68 13.552 32.712 15.312V30H28.248V16.896C28.216 15.872 27.96 15.024 27.48 14.352C27.032 13.648 26.232 13.264 25.08 13.2C23.928 13.2 22.888 13.552 21.96 14.256C21.064 14.96 20.36 15.872 19.848 16.992C19.336 18.08 19.064 19.264 19.032 20.544V30H14.568V16.896C14.536 15.872 14.264 15.024 13.752 14.352C13.272 13.648 12.456 13.264 11.304 13.2C10.12 13.2 9.08 13.552 8.184 14.256C7.288 14.96 6.584 15.872 6.072 16.992C5.592 18.112 5.352 19.312 5.352 20.592V30H0.888V10.128H4.872ZM42.0836 39.552L55.1876 10.128H59.3156L46.4996 39.552H42.0836ZM46.9796 30.144L37.4276 10.128H42.4676L50.4836 27.888L46.9796 30.144ZM91.0219 30.48C89.5179 30.48 88.0619 30.128 86.6539 29.424C85.2779 28.72 84.2059 27.776 83.4379 26.592L83.7259 25.2V39.552H79.3099V9.84H83.1499L83.7739 14.928L83.2939 13.536C84.2539 12.32 85.4699 11.312 86.9419 10.512C88.4139 9.712 90.0619 9.312 91.8859 9.312C93.7419 9.312 95.4059 9.76 96.8779 10.656C98.3819 11.552 99.5659 12.8 100.43 14.4C101.294 16 101.726 17.872 101.726 20.016C101.726 22.16 101.262 24.016 100.334 25.584C99.4059 27.152 98.1259 28.368 96.4939 29.232C94.8939 30.064 93.0699 30.48 91.0219 30.48ZM90.1579 26.928C91.4379 26.928 92.6059 26.64 93.6619 26.064C94.7499 25.456 95.6139 24.64 96.2539 23.616C96.8939 22.56 97.2139 21.376 97.2139 20.064C97.2139 18.72 96.9099 17.536 96.3019 16.512C95.6939 15.456 94.8779 14.624 93.8539 14.016C92.8619 13.408 91.7419 13.104 90.4939 13.104C89.3419 13.104 88.3019 13.328 87.3739 13.776C86.4459 14.224 85.6779 14.848 85.0699 15.648C84.4619 16.416 84.0299 17.312 83.7739 18.336V21.648C83.9339 22.672 84.3179 23.584 84.9259 24.384C85.5339 25.184 86.2859 25.808 87.1819 26.256C88.1099 26.704 89.1019 26.928 90.1579 26.928ZM111.747 10.128L112.179 15.888L111.939 15.12C112.451 13.904 113.187 12.88 114.147 12.048C115.139 11.184 116.163 10.528 117.219 10.08C118.307 9.6 119.251 9.36 120.051 9.36L119.811 13.776C118.307 13.68 116.979 13.968 115.827 14.64C114.707 15.312 113.811 16.208 113.139 17.328C112.499 18.448 112.179 19.648 112.179 20.928V30H107.763V10.128H111.747ZM123.238 19.872C123.238 17.888 123.702 16.096 124.63 14.496C125.59 12.896 126.902 11.632 128.566 10.704C130.23 9.776 132.118 9.312 134.23 9.312C136.406 9.312 138.31 9.776 139.942 10.704C141.574 11.632 142.838 12.896 143.734 14.496C144.63 16.096 145.078 17.888 145.078 19.872C145.078 21.856 144.63 23.664 143.734 25.296C142.838 26.896 141.558 28.16 139.894 29.088C138.262 30.016 136.358 30.48 134.182 30.48C132.07 30.48 130.182 30.048 128.518 29.184C126.886 28.288 125.59 27.056 124.63 25.488C123.702 23.888 123.238 22.016 123.238 19.872ZM127.702 19.92C127.702 21.2 127.99 22.368 128.566 23.424C129.142 24.448 129.91 25.264 130.87 25.872C131.862 26.48 132.95 26.784 134.134 26.784C135.382 26.784 136.486 26.48 137.446 25.872C138.438 25.264 139.206 24.448 139.75 23.424C140.294 22.368 140.566 21.2 140.566 19.92C140.566 18.64 140.294 17.488 139.75 16.464C139.206 15.408 138.438 14.576 137.446 13.968C136.486 13.328 135.382 13.008 134.134 13.008C132.918 13.008 131.814 13.328 130.822 13.968C129.862 14.608 129.094 15.456 128.518 16.512C127.974 17.536 127.702 18.672 127.702 19.92ZM151.362 39.552L148.722 36.816C149.618 36.048 150.322 35.088 150.834 33.936C151.346 32.816 151.602 31.488 151.602 29.952V10.128H156.114V30.144C156.114 32.384 155.73 34.272 154.962 35.808C154.226 37.376 153.026 38.624 151.362 39.552ZM151.218 2.928C151.218 2.224 151.49 1.632 152.034 1.152C152.61 0.671998 153.234 0.431997 153.906 0.431997C154.578 0.431997 155.17 0.671998 155.682 1.152C156.226 1.632 156.498 2.224 156.498 2.928C156.498 3.664 156.226 4.272 155.682 4.752C155.17 5.2 154.578 5.424 153.906 5.424C153.234 5.424 152.61 5.184 152.034 4.704C151.49 4.224 151.218 3.632 151.218 2.928ZM172.76 30.48C170.488 30.48 168.536 30.032 166.904 29.136C165.272 28.208 164.008 26.96 163.112 25.392C162.248 23.792 161.816 21.968 161.816 19.92C161.816 17.968 162.312 16.192 163.304 14.592C164.296 12.992 165.624 11.712 167.288 10.752C168.952 9.792 170.808 9.312 172.856 9.312C175.48 9.312 177.656 10.08 179.384 11.616C181.112 13.152 182.28 15.264 182.888 17.952L166.52 23.712L165.464 21.072L178.904 16.176L177.944 16.8C177.56 15.744 176.92 14.832 176.024 14.064C175.128 13.264 173.96 12.864 172.52 12.864C171.304 12.864 170.216 13.168 169.256 13.776C168.296 14.352 167.544 15.152 167 16.176C166.456 17.2 166.184 18.368 166.184 19.68C166.184 21.056 166.472 22.272 167.048 23.328C167.624 24.352 168.408 25.168 169.4 25.776C170.424 26.352 171.576 26.64 172.856 26.64C173.72 26.64 174.552 26.48 175.352 26.16C176.184 25.84 176.952 25.424 177.656 24.912L179.72 28.224C178.728 28.896 177.608 29.44 176.36 29.856C175.144 30.272 173.944 30.48 172.76 30.48ZM204.61 28.176C203.714 28.88 202.642 29.44 201.394 29.856C200.146 30.272 198.898 30.48 197.65 30.48C195.474 30.48 193.57 30.048 191.938 29.184C190.306 28.32 189.026 27.12 188.098 25.584C187.202 24.016 186.754 22.176 186.754 20.064C186.754 17.952 187.234 16.112 188.194 14.544C189.186 12.976 190.466 11.776 192.034 10.944C193.634 10.08 195.346 9.648 197.17 9.648C198.77 9.648 200.194 9.872 201.442 10.32C202.722 10.768 203.81 11.376 204.706 12.144L202.498 15.024C201.922 14.576 201.218 14.176 200.386 13.824C199.554 13.472 198.61 13.296 197.554 13.296C196.402 13.296 195.33 13.6 194.338 14.208C193.378 14.784 192.61 15.584 192.034 16.608C191.49 17.632 191.218 18.784 191.218 20.064C191.218 21.28 191.506 22.416 192.082 23.472C192.658 24.496 193.458 25.312 194.482 25.92C195.506 26.496 196.674 26.784 197.986 26.784C198.85 26.784 199.634 26.656 200.338 26.4C201.074 26.144 201.73 25.792 202.306 25.344L204.61 28.176ZM212.292 1.392H216.756V10.224H222.228V13.728H216.756V30H212.292V13.728H208.644V10.224H212.292V1.392ZM233.19 30.384C231.782 30.384 230.406 30.144 229.062 29.664C227.75 29.152 226.662 28.4 225.798 27.408L227.67 24.816C228.502 25.616 229.35 26.224 230.214 26.64C231.11 27.024 231.99 27.216 232.854 27.216C233.494 27.216 234.086 27.136 234.63 26.976C235.174 26.816 235.606 26.56 235.926 26.208C236.278 25.824 236.454 25.312 236.454 24.672C236.454 23.968 236.214 23.408 235.734 22.992C235.286 22.576 234.694 22.24 233.958 21.984C233.254 21.728 232.502 21.488 231.702 21.264C230.07 20.72 228.822 19.968 227.958 19.008C227.094 18.048 226.662 16.88 226.662 15.504C226.662 14.448 226.918 13.472 227.43 12.576C227.974 11.648 228.758 10.896 229.782 10.32C230.838 9.744 232.134 9.456 233.67 9.456C235.046 9.456 236.278 9.632 237.366 9.984C238.454 10.304 239.478 10.848 240.438 11.616L238.662 14.4C238.086 13.792 237.398 13.344 236.598 13.056C235.798 12.768 235.078 12.608 234.438 12.576C233.894 12.544 233.366 12.624 232.854 12.816C232.374 13.008 231.974 13.28 231.654 13.632C231.334 13.984 231.174 14.4 231.174 14.88C231.174 15.552 231.398 16.096 231.846 16.512C232.294 16.928 232.87 17.264 233.574 17.52C234.31 17.744 235.03 17.984 235.734 18.24C236.726 18.528 237.606 18.912 238.374 19.392C239.142 19.872 239.75 20.464 240.198 21.168C240.678 21.872 240.918 22.752 240.918 23.808C240.918 24.992 240.63 26.096 240.054 27.12C239.51 28.112 238.662 28.912 237.51 29.52C236.39 30.096 234.95 30.384 233.19 30.384Z" fill="white"/>
</svg>
