<svg width="185" height="48" viewBox="0 0 185 48" xmlns="http://www.w3.org/2000/svg">
<path d="M4.872 18.128L5.256 22.592L5.064 22.208C5.8 20.704 6.84 19.52 8.184 18.656C9.56 17.792 11.128 17.36 12.888 17.36C14.008 17.36 15 17.536 15.864 17.888C16.728 18.24 17.432 18.752 17.976 19.424C18.552 20.064 18.92 20.864 19.08 21.824L18.84 21.968C19.608 20.528 20.664 19.408 22.008 18.608C23.384 17.776 24.824 17.36 26.328 17.36C28.28 17.36 29.816 17.92 30.936 19.04C32.088 20.128 32.68 21.552 32.712 23.312V38H28.248V24.896C28.216 23.872 27.96 23.024 27.48 22.352C27.032 21.648 26.232 21.264 25.08 21.2C23.928 21.2 22.888 21.552 21.96 22.256C21.064 22.96 20.36 23.872 19.848 24.992C19.336 26.08 19.064 27.264 19.032 28.544V38H14.568V24.896C14.536 23.872 14.264 23.024 13.752 22.352C13.272 21.648 12.456 21.264 11.304 21.2C10.12 21.2 9.08 21.552 8.184 22.256C7.288 22.96 6.584 23.872 6.072 24.992C5.592 26.112 5.352 27.312 5.352 28.592V38H0.888V18.128H4.872ZM42.0836 47.552L55.1876 18.128H59.3156L46.4996 47.552H42.0836ZM46.9796 38.144L37.4276 18.128H42.4676L50.4836 35.888L46.9796 38.144ZM84.8779 38.384C83.4699 38.384 82.0939 38.144 80.7499 37.664C79.4379 37.152 78.3499 36.4 77.4859 35.408L79.3579 32.816C80.1899 33.616 81.0379 34.224 81.9019 34.64C82.7979 35.024 83.6779 35.216 84.5419 35.216C85.1819 35.216 85.7739 35.136 86.3179 34.976C86.8619 34.816 87.2939 34.56 87.6139 34.208C87.9659 33.824 88.1419 33.312 88.1419 32.672C88.1419 31.968 87.9019 31.408 87.4219 30.992C86.9739 30.576 86.3819 30.24 85.6459 29.984C84.9419 29.728 84.1899 29.488 83.3899 29.264C81.7579 28.72 80.5099 27.968 79.6459 27.008C78.7819 26.048 78.3499 24.88 78.3499 23.504C78.3499 22.448 78.6059 21.472 79.1179 20.576C79.6619 19.648 80.4459 18.896 81.4699 18.32C82.5259 17.744 83.8219 17.456 85.3579 17.456C86.7339 17.456 87.9659 17.632 89.0539 17.984C90.1419 18.304 91.1659 18.848 92.1259 19.616L90.3499 22.4C89.7739 21.792 89.0859 21.344 88.2859 21.056C87.4859 20.768 86.7659 20.608 86.1259 20.576C85.5819 20.544 85.0539 20.624 84.5419 20.816C84.0619 21.008 83.6619 21.28 83.3419 21.632C83.0219 21.984 82.8619 22.4 82.8619 22.88C82.8619 23.552 83.0859 24.096 83.5339 24.512C83.9819 24.928 84.5579 25.264 85.2619 25.52C85.9979 25.744 86.7179 25.984 87.4219 26.24C88.4139 26.528 89.2939 26.912 90.0619 27.392C90.8299 27.872 91.4379 28.464 91.8859 29.168C92.3659 29.872 92.6059 30.752 92.6059 31.808C92.6059 32.992 92.3179 34.096 91.7419 35.12C91.1979 36.112 90.3499 36.912 89.1979 37.52C88.0779 38.096 86.6379 38.384 84.8779 38.384ZM100.777 9.392H105.241V18.224H110.713V21.728H105.241V38H100.777V21.728H97.1288V18.224H100.777V9.392ZM124.363 38.48C122.507 38.48 120.811 38.08 119.275 37.28C117.771 36.48 116.571 35.312 115.675 33.776C114.811 32.208 114.379 30.304 114.379 28.064C114.379 25.856 114.843 23.952 115.771 22.352C116.699 20.72 117.931 19.472 119.467 18.608C121.035 17.744 122.747 17.312 124.603 17.312C126.459 17.312 128.027 17.744 129.307 18.608C130.587 19.44 131.563 20.432 132.235 21.584L131.947 22.352L132.379 18.128H136.507V38H132.043V32.816L132.523 33.968C132.395 34.288 132.107 34.704 131.659 35.216C131.243 35.696 130.667 36.192 129.931 36.704C129.227 37.216 128.411 37.648 127.483 38C126.555 38.32 125.515 38.48 124.363 38.48ZM125.563 34.784C126.683 34.784 127.691 34.576 128.587 34.16C129.483 33.744 130.219 33.168 130.795 32.432C131.403 31.664 131.819 30.752 132.043 29.696V25.808C131.787 24.848 131.339 24.016 130.699 23.312C130.059 22.576 129.291 22.016 128.395 21.632C127.499 21.216 126.507 21.008 125.419 21.008C124.235 21.008 123.147 21.296 122.155 21.872C121.163 22.448 120.363 23.248 119.755 24.272C119.179 25.296 118.891 26.496 118.891 27.872C118.891 29.152 119.195 30.32 119.803 31.376C120.411 32.432 121.227 33.264 122.251 33.872C123.275 34.48 124.379 34.784 125.563 34.784ZM160.36 36.176C159.464 36.88 158.392 37.44 157.144 37.856C155.896 38.272 154.648 38.48 153.4 38.48C151.224 38.48 149.32 38.048 147.688 37.184C146.056 36.32 144.776 35.12 143.848 33.584C142.952 32.016 142.504 30.176 142.504 28.064C142.504 25.952 142.984 24.112 143.944 22.544C144.936 20.976 146.216 19.776 147.784 18.944C149.384 18.08 151.096 17.648 152.92 17.648C154.52 17.648 155.944 17.872 157.192 18.32C158.472 18.768 159.56 19.376 160.456 20.144L158.248 23.024C157.672 22.576 156.968 22.176 156.136 21.824C155.304 21.472 154.36 21.296 153.304 21.296C152.152 21.296 151.08 21.6 150.088 22.208C149.128 22.784 148.36 23.584 147.784 24.608C147.24 25.632 146.968 26.784 146.968 28.064C146.968 29.28 147.256 30.416 147.832 31.472C148.408 32.496 149.208 33.312 150.232 33.92C151.256 34.496 152.424 34.784 153.736 34.784C154.6 34.784 155.384 34.656 156.088 34.4C156.824 34.144 157.48 33.792 158.056 33.344L160.36 36.176ZM166.122 38V0.847998H170.586V38H166.122ZM175.386 24.8L184.506 38H179.274L172.41 27.296L175.386 24.8ZM169.194 31.664L168.762 27.392L180.81 17.696L183.546 20.048L169.194 31.664Z"/>
</svg>
