<svg width="177" height="38" viewBox="0 0 177 38" xmlns="http://www.w3.org/2000/svg">
<path d="M20.944 8.488C19.76 7.88 18.464 7.352 17.056 6.904C15.648 6.456 14.272 6.232 12.928 6.232C11.072 6.232 9.584 6.664 8.464 7.528C7.376 8.392 6.832 9.544 6.832 10.984C6.832 12.072 7.184 13 7.888 13.768C8.592 14.504 9.52 15.144 10.672 15.688C11.824 16.232 13.024 16.744 14.272 17.224C15.36 17.64 16.432 18.104 17.488 18.616C18.544 19.128 19.488 19.768 20.32 20.536C21.184 21.304 21.856 22.248 22.336 23.368C22.848 24.488 23.104 25.88 23.104 27.544C23.104 29.368 22.64 31.032 21.712 32.536C20.816 34.04 19.52 35.224 17.824 36.088C16.128 36.952 14.112 37.384 11.776 37.384C10.24 37.384 8.768 37.208 7.36 36.856C5.984 36.504 4.704 36.056 3.52 35.512C2.336 34.936 1.28 34.344 0.352 33.736L2.416 30.088C3.184 30.632 4.064 31.16 5.056 31.672C6.048 32.152 7.088 32.552 8.176 32.872C9.264 33.16 10.32 33.304 11.344 33.304C12.432 33.304 13.504 33.112 14.56 32.728C15.648 32.312 16.544 31.688 17.248 30.856C17.952 30.024 18.304 28.92 18.304 27.544C18.304 26.36 17.984 25.384 17.344 24.616C16.736 23.816 15.92 23.144 14.896 22.6C13.872 22.024 12.784 21.512 11.632 21.064C10.544 20.648 9.44 20.2 8.32 19.72C7.2 19.208 6.16 18.6 5.2 17.896C4.24 17.16 3.472 16.264 2.896 15.208C2.32 14.152 2.032 12.872 2.032 11.368C2.032 9.544 2.464 7.96 3.328 6.616C4.224 5.24 5.44 4.168 6.976 3.4C8.512 2.6 10.272 2.168 12.256 2.104C14.496 2.104 16.464 2.376 18.16 2.92C19.888 3.464 21.408 4.136 22.72 4.936L20.944 8.488ZM28.1511 2.296H51.1911V6.76H41.8791V37H37.2231V6.76H28.1511V2.296ZM58.5858 2.296H81.1458V6.76H63.2418V17.32H79.2258V21.784H63.2418V32.536H81.8177V37H58.5858V2.296ZM89.8983 2.296H94.5543V32.536H112.17V37H89.8983V2.296ZM119.758 2.296H124.414V32.536H142.03V37H119.758V2.296ZM146.161 37L161.329 0.855999H161.617L176.737 37H171.409L160.081 8.152L163.393 5.992L150.721 37H146.161ZM155.041 23.848H167.953L169.489 27.88H153.697L155.041 23.848Z"/>
</svg>
