<svg width="133" height="31" viewBox="0 0 133 31" fill="none" xmlns="http://www.w3.org/2000/svg">
<path d="M15.64 3.92C13.6933 3.09333 11.76 2.68 9.84 2.68C5.94667 2.68 4 4.12 4 7C4 8.25333 4.44 9.42667 5.32 10.52C6.2 11.5867 7.26667 12.5467 8.52 13.4C9.77333 14.2267 11.0267 15.08 12.28 15.96C13.5333 16.84 14.6 17.8933 15.48 19.12C16.36 20.3467 16.8 21.68 16.8 23.12C16.8 25.5467 15.9867 27.3867 14.36 28.64C12.7333 29.8667 10.48 30.48 7.6 30.48C4.74667 30.48 2.30667 29.7467 0.28 28.28L1.24 26.84C3.16 28.0933 5.26667 28.72 7.56 28.72C9.85333 28.72 11.6133 28.2667 12.84 27.36C14.0667 26.4267 14.68 25.0933 14.68 23.36C14.68 22.16 14.24 21.0267 13.36 19.96C12.48 18.8667 11.4133 17.8933 10.16 17.04C8.90667 16.16 7.65333 15.2667 6.4 14.36C5.14667 13.4533 4.08 12.3733 3.2 11.12C2.32 9.86666 1.88 8.52 1.88 7.08C1.88 5.18667 2.57333 3.69333 3.96 2.6C5.37333 1.48 7.26667 0.919998 9.64 0.919998C12.04 0.919998 14.2667 1.4 16.32 2.36L15.64 3.92ZM30.435 3.08H20.755V1.4H42.035V3.08H32.355V30H30.435V3.08ZM48.2019 30V1.4H61.4819V3.08H50.1219V13.6H60.4019V15.24H50.1219V28.32H61.9219V30H48.2019ZM69.6081 30V1.4H71.5281V28.24H84.6881V30H69.6081ZM90.8581 30V1.4H92.7781V28.24H105.938V30H90.8581ZM113.628 20.08L109.508 30H107.468L119.508 1.2H120.628L132.708 30H130.548L126.428 20.08H113.628ZM119.948 4.4C119.921 4.42666 119.868 4.58666 119.788 4.88C119.415 6.02667 119.055 7 118.708 7.8L114.308 18.44H125.748L121.348 7.84C120.415 5.81333 119.948 4.66666 119.948 4.4Z" fill="black"/>
</svg>
